<svg width="20" height="20" viewBox="0 0 20 20" fill="none" xmlns="http://www.w3.org/2000/svg">
<path fill-rule="evenodd" clip-rule="evenodd" d="M7.63585 2.34925C7.50002 2.61591 7.50002 2.96591 7.50002 3.66675V9.16675H6.50252C5.76669 9.16675 5.39835 9.16675 5.22419 9.31341C5.14945 9.37624 5.09047 9.45569 5.05198 9.54542C5.01349 9.63514 4.99655 9.73263 5.00252 9.83008C5.01669 10.0584 5.27085 10.3242 5.77835 10.8567L9.27669 14.5242C9.52835 14.7892 9.65419 14.9209 9.80169 14.9701C9.93039 15.0132 10.0696 15.0132 10.1984 14.9701C10.3459 14.9209 10.4717 14.7892 10.7234 14.5242L14.2217 10.8576C14.73 10.3242 14.9834 10.0576 14.9967 9.83008C15.0028 9.7327 14.986 9.63525 14.9476 9.54553C14.9093 9.45581 14.8504 9.37632 14.7759 9.31341C14.6017 9.16675 14.2342 9.16675 13.4975 9.16675H12.5V3.66675C12.5 2.96675 12.5 2.61675 12.3634 2.34925C12.2437 2.11396 12.0526 1.9226 11.8175 1.80258C11.5509 1.66675 11.2009 1.66675 10.5 1.66675H9.50002C8.80002 1.66675 8.45002 1.66675 8.18252 1.80258C7.94711 1.92246 7.75573 2.11384 7.63585 2.34925ZM4.16669 17.5001C4.16669 17.7211 4.25448 17.9331 4.41076 18.0893C4.56705 18.2456 4.77901 18.3334 5.00002 18.3334H15C15.221 18.3334 15.433 18.2456 15.5893 18.0893C15.7456 17.9331 15.8334 17.7211 15.8334 17.5001C15.8334 17.2791 15.7456 17.0671 15.5893 16.9108C15.433 16.7545 15.221 16.6667 15 16.6667H5.00002C4.77901 16.6667 4.56705 16.7545 4.41076 16.9108C4.25448 17.0671 4.16669 17.2791 4.16669 17.5001Z" fill="#608C9E"/>
</svg>
