<svg width="27" height="106" viewBox="0 0 27 106" fill="none" xmlns="http://www.w3.org/2000/svg">
<rect width="27" height="106" fill="#99BDC6"/>
<path d="M8.36899 58.2157C7.54442 58.2125 6.8349 58.0096 6.24044 57.6069C5.64918 57.2042 5.19375 56.6209 4.87414 55.8571C4.55774 55.0932 4.40113 54.1744 4.40433 53.1005C4.40433 52.0298 4.56253 51.1174 4.87894 50.3631C5.19854 49.6088 5.65397 49.0352 6.24524 48.642C6.8397 48.2457 7.54762 48.0476 8.36899 48.0476C9.19037 48.0476 9.89669 48.2457 10.488 48.642C11.0824 49.0384 11.5394 49.6136 11.8591 50.3679C12.1787 51.119 12.3369 52.0298 12.3337 53.1005C12.3337 54.1776 12.1739 55.098 11.8543 55.8619C11.5379 56.6257 11.084 57.209 10.4928 57.6117C9.90149 58.0144 9.19357 58.2157 8.36899 58.2157ZM8.36899 56.4947C8.93149 56.4947 9.38054 56.2118 9.71612 55.6461C10.0517 55.0804 10.2179 54.2319 10.2147 53.1005C10.2147 52.3558 10.138 51.7358 9.98458 51.2404C9.83437 50.745 9.62024 50.3727 9.34218 50.1234C9.06732 49.8741 8.74293 49.7495 8.36899 49.7495C7.80969 49.7495 7.36225 50.0291 7.02666 50.5884C6.69108 51.1477 6.52169 51.9851 6.5185 53.1005C6.5185 53.8548 6.5936 54.4844 6.74382 54.9893C6.89723 55.4911 7.11296 55.8683 7.39101 56.1207C7.66906 56.37 7.99506 56.4947 8.36899 56.4947ZM15.5688 58V56.5043L19.0637 53.2683C19.3609 52.9806 19.6102 52.7218 19.8115 52.4917C20.0161 52.2615 20.1711 52.0362 20.2766 51.8157C20.382 51.592 20.4348 51.3507 20.4348 51.0918C20.4348 50.8042 20.3692 50.5565 20.2382 50.3487C20.1072 50.1378 19.9282 49.9764 19.7013 49.8645C19.4744 49.7495 19.2171 49.6919 18.9294 49.6919C18.629 49.6919 18.3669 49.7527 18.1432 49.8741C17.9195 49.9956 17.7469 50.1697 17.6255 50.3967C17.504 50.6236 17.4433 50.8936 17.4433 51.2069H15.4729C15.4729 50.5645 15.6184 50.0067 15.9092 49.5337C16.2 49.0607 16.6075 48.6948 17.1317 48.4359C17.6558 48.177 18.2599 48.0476 18.9438 48.0476C19.6469 48.0476 20.259 48.1722 20.7799 48.4215C21.3041 48.6676 21.7116 49.0096 22.0024 49.4474C22.2933 49.8853 22.4387 50.3871 22.4387 50.9528C22.4387 51.3235 22.3652 51.6895 22.2181 52.0506C22.0743 52.4118 21.817 52.8129 21.4463 53.2539C21.0756 53.6918 20.553 54.2175 19.8787 54.8311L18.4452 56.2358V56.3029H22.5681V58H15.5688Z" fill="#0A1C2D"/>
</svg>
