<svg width="27" height="106" viewBox="0 0 27 106" fill="none" xmlns="http://www.w3.org/2000/svg">
<rect width="27" height="106" fill="#99BDC6"/>
<path d="M8.17124 58.2157C7.34667 58.2125 6.63715 58.0096 6.04269 57.6069C5.45142 57.2042 4.99599 56.6209 4.67639 55.8571C4.35998 55.0932 4.20338 54.1744 4.20657 53.1005C4.20657 52.0298 4.36478 51.1174 4.68118 50.3631C5.00079 49.6088 5.45622 49.0352 6.04748 48.642C6.64194 48.2457 7.34986 48.0476 8.17124 48.0476C8.99262 48.0476 9.69894 48.2457 10.2902 48.642C10.8847 49.0384 11.3417 49.6136 11.6613 50.3679C11.9809 51.119 12.1391 52.0298 12.1359 53.1005C12.1359 54.1776 11.9761 55.098 11.6565 55.8619C11.3401 56.6257 10.8863 57.209 10.295 57.6117C9.70373 58.0144 8.99581 58.2157 8.17124 58.2157ZM8.17124 56.4947C8.73374 56.4947 9.18278 56.2118 9.51836 55.6461C9.85395 55.0804 10.0201 54.2319 10.0169 53.1005C10.0169 52.3558 9.94024 51.7358 9.78683 51.2404C9.63662 50.745 9.42248 50.3727 9.14443 50.1234C8.86957 49.8741 8.54517 49.7495 8.17124 49.7495C7.61194 49.7495 7.16449 50.0291 6.82891 50.5884C6.49333 51.1477 6.32394 51.9851 6.32074 53.1005C6.32074 53.8548 6.39585 54.4844 6.54606 54.9893C6.69947 55.4911 6.9152 55.8683 7.19326 56.1207C7.47131 56.37 7.79731 56.4947 8.17124 56.4947ZM19.0001 58.1342C18.2842 58.1342 17.6466 58.0112 17.0873 57.7651C16.5312 57.5158 16.0918 57.1738 15.769 56.7392C15.4494 56.3013 15.2848 55.7963 15.2752 55.2243H17.3654C17.3782 55.464 17.4565 55.6749 17.6003 55.8571C17.7473 56.036 17.9423 56.1751 18.1852 56.2741C18.4281 56.3732 18.7013 56.4228 19.0049 56.4228C19.3213 56.4228 19.601 56.3668 19.8439 56.255C20.0868 56.1431 20.277 55.9881 20.4144 55.79C20.5518 55.5918 20.6205 55.3633 20.6205 55.1044C20.6205 54.8423 20.547 54.6106 20.4 54.4093C20.2562 54.2047 20.0484 54.0449 19.7768 53.9299C19.5083 53.8148 19.1887 53.7573 18.818 53.7573H17.9023V52.2328H18.818C19.1312 52.2328 19.4076 52.1784 19.6473 52.0698C19.8902 51.9611 20.0788 51.8109 20.213 51.6191C20.3473 51.4242 20.4144 51.1973 20.4144 50.9384C20.4144 50.6923 20.3553 50.4766 20.237 50.2912C20.122 50.1026 19.959 49.9556 19.748 49.8501C19.5403 49.7447 19.2974 49.6919 19.0193 49.6919C18.7381 49.6919 18.4808 49.7431 18.2475 49.8453C18.0142 49.9444 17.8272 50.0866 17.6866 50.272C17.546 50.4574 17.4709 50.6747 17.4613 50.924H15.4717C15.4813 50.3583 15.6427 49.8597 15.9559 49.4283C16.2691 48.9968 16.691 48.6596 17.2216 48.4167C17.7553 48.1706 18.3577 48.0476 19.0289 48.0476C19.7065 48.0476 20.2993 48.1706 20.8075 48.4167C21.3157 48.6628 21.7104 48.9952 21.9916 49.4139C22.2761 49.8294 22.4167 50.296 22.4135 50.8137C22.4167 51.3635 22.2457 51.8221 21.9005 52.1896C21.5586 52.5572 21.1127 52.7905 20.563 52.8896V52.9663C21.2853 53.0589 21.835 53.3098 22.2122 53.7189C22.5925 54.1248 22.781 54.633 22.7778 55.2434C22.781 55.8027 22.6196 56.2997 22.2936 56.7344C21.9709 57.169 21.525 57.511 20.9561 57.7603C20.3872 58.0096 19.7352 58.1342 19.0001 58.1342Z" fill="#0A1C2D"/>
</svg>
