<svg width="27" height="106" viewBox="0 0 27 106" fill="none" xmlns="http://www.w3.org/2000/svg">
<rect width="27" height="106" fill="#99BDC6"/>
<path d="M9.31821 61.2157C8.49364 61.2125 7.78412 61.0096 7.18966 60.6069C6.5984 60.2042 6.14296 59.6209 5.82336 58.8571C5.50696 58.0932 5.35035 57.1744 5.35355 56.1005C5.35355 55.0298 5.51175 54.1174 5.82816 53.3631C6.14776 52.6088 6.60319 52.0352 7.19446 51.642C7.78892 51.2457 8.49683 51.0476 9.31821 51.0476C10.1396 51.0476 10.8459 51.2457 11.4372 51.642C12.0316 52.0384 12.4887 52.6136 12.8083 53.3679C13.1279 54.119 13.2861 55.0298 13.2829 56.1005C13.2829 57.1776 13.1231 58.098 12.8035 58.8619C12.4871 59.6257 12.0332 60.209 11.442 60.6117C10.8507 61.0144 10.1428 61.2157 9.31821 61.2157ZM9.31821 59.4947C9.88071 59.4947 10.3298 59.2118 10.6653 58.6461C11.0009 58.0804 11.1671 57.2319 11.1639 56.1005C11.1639 55.3558 11.0872 54.7358 10.9338 54.2404C10.7836 53.745 10.5695 53.3727 10.2914 53.1234C10.0165 52.8741 9.69215 52.7495 9.31821 52.7495C8.75891 52.7495 8.31147 53.0291 7.97588 53.5884C7.6403 54.1477 7.47091 54.9851 7.46772 56.1005C7.46772 56.8548 7.54282 57.4844 7.69303 57.9893C7.84644 58.4911 8.06218 58.8683 8.34023 59.1207C8.61828 59.37 8.94428 59.4947 9.31821 59.4947ZM20.7895 51.1818V61H18.7137V53.1522H18.6562L16.4078 54.5616V52.7207L18.8383 51.1818H20.7895Z" fill="#0A1C2D"/>
</svg>
