<svg width="20" height="20" viewBox="0 0 20 20" fill="none" xmlns="http://www.w3.org/2000/svg">
<path d="M18.3334 4.16659V7.49992L10 10.8333L1.66669 7.49992V4.16659C1.66669 3.94557 1.75448 3.73361 1.91076 3.57733C2.06704 3.42105 2.27901 3.33325 2.50002 3.33325H17.5C17.721 3.33325 17.933 3.42105 18.0893 3.57733C18.2456 3.73361 18.3334 3.94557 18.3334 4.16659ZM1.66669 9.29492V15.8333C1.66669 16.0543 1.75448 16.2662 1.91076 16.4225C2.06704 16.5788 2.27901 16.6666 2.50002 16.6666H17.5C17.721 16.6666 17.933 16.5788 18.0893 16.4225C18.2456 16.2662 18.3334 16.0543 18.3334 15.8333V9.29492L10 12.6283L1.66669 9.29492Z" fill="#608C9E"/>
</svg>
