<svg width="20" height="20" viewBox="0 0 20 20" fill="none" xmlns="http://www.w3.org/2000/svg">
<path d="M15.5594 2.18895C15.469 1.97077 15.2945 1.80385 15.0799 1.73031L15.0783 1.72978L15.0768 1.72926L15.0737 1.7282L15.0671 1.72603L15.053 1.72161C15.0432 1.71861 15.0325 1.71555 15.021 1.71247C14.998 1.70632 14.9717 1.70014 14.9421 1.69441C14.8828 1.68292 14.8107 1.67331 14.7257 1.66907C14.555 1.66057 14.3364 1.6739 14.0681 1.73386C13.6206 1.83386 13.0397 2.06228 12.3103 2.53034C12.2627 2.56093 12.2143 2.59255 12.1654 2.62521C12.1164 2.61309 12.0674 2.60137 12.0183 2.59008C10.6884 2.28411 9.31184 2.28411 7.98188 2.59008C7.93278 2.60138 7.88374 2.61309 7.83478 2.62522C7.78582 2.59255 7.73749 2.56093 7.68979 2.53034C6.95969 2.06204 6.37743 1.83366 5.92879 1.73374C5.65983 1.67385 5.44076 1.6606 5.27 1.66906C5.18489 1.67328 5.1128 1.68284 5.05357 1.69424C5.024 1.69993 4.99777 1.70606 4.97486 1.71214C4.96341 1.71518 4.9528 1.71821 4.94303 1.72117L4.92901 1.72555L4.92249 1.72767L4.91934 1.72872L4.91779 1.72924L4.91627 1.72976C4.69983 1.80339 4.52398 1.97194 4.43374 2.19226C4.09764 3.01291 4.00842 3.91786 4.17029 4.78596C4.17816 4.82814 4.18662 4.87023 4.19567 4.91223C4.16097 4.96152 4.12725 5.01148 4.09453 5.06207C3.58976 5.84249 3.32128 6.77334 3.33386 7.72919C3.33507 9.77633 3.93304 11.1783 4.94434 12.0805C5.51679 12.5912 6.18119 12.9037 6.84894 13.1007C6.92535 13.1233 7.00181 13.1443 7.07818 13.164C7.06703 13.2027 7.05664 13.2418 7.04701 13.2812C7.00658 13.4465 6.97977 13.6162 6.96736 13.7885C6.96624 13.8041 6.96553 13.8197 6.96524 13.8352L6.93697 15.3509L6.93681 15.3673C6.93681 15.3721 6.93681 15.3768 6.93681 15.3815C6.88552 15.3942 6.83338 15.4037 6.78069 15.4097C6.61834 15.4285 6.45389 15.4148 6.29675 15.3696C6.1396 15.3243 5.99273 15.2483 5.8646 15.1458C5.73648 15.0433 5.62961 14.9162 5.55026 14.7718L5.54209 14.7573C5.32364 14.378 5.02189 14.0533 4.65952 13.808C4.29714 13.5626 3.88367 13.4031 3.45039 13.3417C2.99471 13.2771 2.57294 13.5941 2.50835 14.0498C2.44376 14.5055 2.7608 14.9272 3.21649 14.9918C3.39847 15.0177 3.5724 15.0847 3.7251 15.1881C3.87601 15.2902 4.00231 15.4253 4.0945 15.5834C4.27884 15.9161 4.52638 16.2096 4.82334 16.4472C5.12294 16.6869 5.46694 16.865 5.8356 16.9712C6.19457 17.0745 6.56994 17.1077 6.94124 17.0688C6.94199 17.2687 6.94253 17.4222 6.94253 17.5001C6.94253 17.9603 7.29601 18.3334 7.73206 18.3334H12.2965C12.7325 18.3334 13.086 17.9603 13.086 17.5001V14.3413C13.1075 13.9836 13.0708 13.625 12.9782 13.2812C12.9654 13.2338 12.9516 13.1867 12.9368 13.14C12.9865 13.1276 13.0363 13.1145 13.086 13.1007C13.7731 12.9115 14.4594 12.6021 15.049 12.082C16.0659 11.1848 16.6652 9.78166 16.6663 7.72919C16.6789 6.77334 16.4104 5.84249 15.9057 5.06207C15.8729 5.0114 15.8392 4.96136 15.8043 4.91199C15.8133 4.87007 15.8218 4.82806 15.8296 4.78596C15.9911 3.9162 15.8996 3.0096 15.5594 2.18895Z" fill="#608C9E"/>
</svg>
