<svg width="486" height="538" viewBox="0 0 486 538" fill="none" xmlns="http://www.w3.org/2000/svg">
<g filter="url(#filter0_b_7_98)">
<rect width="458" height="510" transform="matrix(1 0 0 -1 14.0004 524)" fill="white" fill-opacity="0.04"/>
</g>
<rect x="14.5004" y="14.5" width="457" height="509" stroke="#99BDC6"/>
<rect x="422" y="21" width="15" height="16" fill="#99BDC6"/>
<g clip-path="url(#clip0_7_98)">
<path d="M426.375 30.3333H425.125V33.6667H428.25V32.3333H426.375V30.3333ZM425.125 27.6667H426.375V25.6667H428.25V24.3333H425.125V27.6667ZM432.625 32.3333H430.75V33.6667H433.875V30.3333H432.625V32.3333ZM430.75 24.3333V25.6667H432.625V27.6667H433.875V24.3333H430.75Z" fill="#35596C"/>
</g>
<rect x="447" y="21" width="15" height="16" fill="#99BDC6"/>
<g clip-path="url(#clip1_7_98)">
<path d="M458.875 25.2733L457.994 24.3333L454.5 28.06L451.006 24.3333L450.125 25.2733L453.619 29L450.125 32.7267L451.006 33.6667L454.5 29.94L457.994 33.6667L458.875 32.7267L455.381 29L458.875 25.2733Z" fill="#35596C"/>
</g>
<path d="M16.6474 11.8714L16.6474 10.4044H10.4047V16.647H11.8718L11.877 11.8766L16.6474 11.8714Z" fill="#99BDC6"/>
<path d="M469.324 526.099L469.324 527.566L475.566 527.566L475.566 521.324L474.099 521.324L474.094 526.094L469.324 526.099Z" fill="#99BDC6"/>
<defs>
<filter id="filter0_b_7_98" x="-20.9996" y="-21" width="528" height="580" filterUnits="userSpaceOnUse" color-interpolation-filters="sRGB">
<feFlood flood-opacity="0" result="BackgroundImageFix"/>
<feGaussianBlur in="BackgroundImageFix" stdDeviation="17.5"/>
<feComposite in2="SourceAlpha" operator="in" result="effect1_backgroundBlur_7_98"/>
<feBlend mode="normal" in="SourceGraphic" in2="effect1_backgroundBlur_7_98" result="shape"/>
</filter>
<clipPath id="clip0_7_98">
<rect width="15" height="16" fill="white" transform="translate(422 21)"/>
</clipPath>
<clipPath id="clip1_7_98">
<rect width="15" height="16" fill="white" transform="translate(447 21)"/>
</clipPath>
</defs>
</svg>
