<svg width="305" height="105" viewBox="0 0 305 105" fill="none" xmlns="http://www.w3.org/2000/svg">
<path d="M110.26 10.12C109.647 10.12 109.107 9.97667 108.64 9.69C108.18 9.39667 107.82 8.98 107.56 8.44C107.307 7.9 107.18 7.25667 107.18 6.51C107.18 5.75667 107.307 5.11 107.56 4.57C107.82 4.03 108.18 3.61667 108.64 3.33C109.107 3.04333 109.647 2.9 110.26 2.9C110.874 2.9 111.41 3.04333 111.87 3.33C112.33 3.61667 112.687 4.03 112.94 4.57C113.2 5.10333 113.33 5.75 113.33 6.51C113.33 7.25667 113.2 7.9 112.94 8.44C112.687 8.98 112.33 9.39667 111.87 9.69C111.41 9.97667 110.874 10.12 110.26 10.12ZM110.26 8.77C110.52 8.77 110.754 8.68333 110.96 8.51C111.167 8.33 111.33 8.07333 111.45 7.74C111.57 7.4 111.63 6.99 111.63 6.51C111.63 6.02333 111.57 5.61333 111.45 5.28C111.33 4.94 111.167 4.68333 110.96 4.51C110.754 4.33667 110.52 4.25 110.26 4.25C110 4.25 109.764 4.34 109.55 4.52C109.344 4.69333 109.18 4.95 109.06 5.29C108.94 5.62333 108.88 6.03 108.88 6.51C108.88 6.99 108.94 7.4 109.06 7.74C109.18 8.07333 109.344 8.33 109.55 8.51C109.764 8.68333 110 8.77 110.26 8.77ZM116.794 10.12C116.221 10.12 115.728 10.0133 115.314 9.8C114.908 9.58 114.594 9.27333 114.374 8.88C114.161 8.48 114.054 8.01 114.054 7.47H115.674C115.674 7.89 115.764 8.21333 115.944 8.44C116.131 8.66 116.414 8.77 116.794 8.77C117.094 8.77 117.331 8.70667 117.504 8.58C117.684 8.44667 117.774 8.26 117.774 8.02C117.774 7.84 117.708 7.7 117.574 7.6C117.448 7.49333 117.274 7.40667 117.054 7.34C116.841 7.26667 116.604 7.2 116.344 7.14C116.091 7.07333 115.834 6.99333 115.574 6.9C115.321 6.80667 115.084 6.68333 114.864 6.53C114.651 6.37667 114.478 6.17667 114.344 5.93C114.218 5.68333 114.154 5.37 114.154 4.99C114.154 4.59667 114.261 4.24333 114.474 3.93C114.694 3.61667 114.998 3.36667 115.384 3.18C115.771 2.99333 116.224 2.9 116.744 2.9C117.218 2.9 117.658 2.99333 118.064 3.18C118.471 3.36 118.801 3.62333 119.054 3.97C119.308 4.31667 119.441 4.74333 119.454 5.25H117.804C117.791 5.02333 117.731 4.83667 117.624 4.69C117.524 4.54333 117.394 4.43333 117.234 4.36C117.081 4.28667 116.918 4.25 116.744 4.25C116.498 4.25 116.288 4.31 116.114 4.43C115.941 4.54333 115.854 4.71333 115.854 4.94C115.854 5.11333 115.918 5.25 116.044 5.35C116.178 5.45 116.351 5.53333 116.564 5.6C116.784 5.66 117.021 5.72 117.274 5.78C117.534 5.84 117.791 5.91667 118.044 6.01C118.304 6.09667 118.541 6.22 118.754 6.38C118.974 6.54 119.148 6.75333 119.274 7.02C119.408 7.28 119.474 7.61333 119.474 8.02C119.474 8.42667 119.358 8.79 119.124 9.11C118.898 9.42333 118.581 9.67 118.174 9.85C117.774 10.03 117.314 10.12 116.794 10.12ZM122.348 6.63V4.9H124.148V6.63H122.348ZM122.358 10V8.27H124.158V10H122.358Z" fill="#608C9E"/>
<path d="M133.306 10L133.846 3.02H135.006L136.056 7.55L136.276 8.77L136.496 7.55L137.566 3.02H138.696L139.246 10H138.386L138.086 5.32L138.036 3.92L137.746 5.32L136.646 10H135.866L134.786 5.32L134.506 3.9L134.446 5.32L134.156 10H133.306ZM142.42 10V4.52H143.25V10H142.42ZM140.32 10V9.33H145.17V10H140.32ZM141.06 5.19V4.52H142.84V5.19H141.06ZM142.35 3.51V2.55H143.31V3.51H142.35ZM149.454 10.12C148.894 10.12 148.407 10.0033 147.994 9.77C147.58 9.53 147.26 9.19667 147.034 8.77C146.807 8.34333 146.694 7.84 146.694 7.26C146.694 6.68 146.81 6.17667 147.044 5.75C147.277 5.31667 147.6 4.98333 148.014 4.75C148.427 4.51667 148.91 4.4 149.464 4.4C149.89 4.4 150.277 4.48 150.624 4.64C150.977 4.8 151.264 5.02667 151.484 5.32C151.704 5.60667 151.834 5.95 151.874 6.35H151.044C150.984 5.95667 150.81 5.65 150.524 5.43C150.237 5.21 149.884 5.1 149.464 5.1C149.077 5.1 148.737 5.19 148.444 5.37C148.15 5.54333 147.924 5.79 147.764 6.11C147.604 6.43 147.524 6.81333 147.524 7.26C147.524 7.92667 147.697 8.45333 148.044 8.84C148.397 9.22667 148.867 9.42 149.454 9.42C149.707 9.42 149.944 9.37 150.164 9.27C150.39 9.17 150.584 9.02667 150.744 8.84C150.904 8.64667 151.014 8.42333 151.074 8.17H151.904C151.837 8.57667 151.684 8.92333 151.444 9.21C151.204 9.49667 150.91 9.72 150.564 9.88C150.224 10.04 149.854 10.12 149.454 10.12ZM157.388 10V6.53C157.388 6.10333 157.264 5.76 157.018 5.5C156.778 5.24 156.458 5.11 156.058 5.11C155.611 5.11 155.214 5.28 154.868 5.62C154.521 5.95333 154.268 6.46333 154.108 7.15L153.958 6.09C154.158 5.53667 154.454 5.11667 154.848 4.83C155.248 4.54333 155.691 4.4 156.178 4.4C156.591 4.4 156.948 4.49 157.248 4.67C157.554 4.84333 157.791 5.08667 157.958 5.4C158.131 5.71333 158.218 6.08333 158.218 6.51V10H157.388ZM153.388 10V2.66H154.218V10H153.388ZM162.342 10.12C161.782 10.12 161.298 10.0067 160.892 9.78C160.485 9.54667 160.172 9.21667 159.952 8.79C159.738 8.35667 159.632 7.84333 159.632 7.25C159.632 6.65667 159.742 6.15 159.962 5.73C160.182 5.30333 160.495 4.97667 160.902 4.75C161.308 4.51667 161.795 4.4 162.362 4.4C163.215 4.4 163.858 4.63333 164.292 5.1C164.725 5.56667 164.918 6.21 164.872 7.03H160.292V6.38L164.022 6.4C163.995 6 163.832 5.68333 163.532 5.45C163.232 5.21 162.842 5.09 162.362 5.09C161.762 5.09 161.295 5.28333 160.962 5.67C160.628 6.05 160.462 6.58333 160.462 7.27C160.462 7.70333 160.535 8.08333 160.682 8.41C160.835 8.73 161.052 8.98 161.332 9.16C161.612 9.33333 161.948 9.42 162.342 9.42C162.808 9.42 163.198 9.31 163.512 9.09C163.832 8.86333 164.028 8.55667 164.102 8.17H164.932C164.832 8.77667 164.552 9.25333 164.092 9.6C163.632 9.94667 163.048 10.12 162.342 10.12ZM168.375 10V2.67H169.195V10H168.375ZM166.275 10V9.33H171.315V10H166.275ZM167.005 3.34V2.67H168.785V3.34H167.005ZM174.879 10V2.67H175.699V10H174.879ZM172.779 10V9.33H177.819V10H172.779ZM173.509 3.34V2.67H175.289V3.34H173.509ZM186.087 10V9.25H188.597C188.931 9.25 189.184 9.15333 189.357 8.96C189.537 8.76 189.627 8.49 189.627 8.15V3.02H190.487V8.12C190.487 8.41333 190.447 8.67667 190.367 8.91C190.287 9.14333 190.167 9.34333 190.007 9.51C189.847 9.67 189.647 9.79333 189.407 9.88C189.174 9.96 188.901 10 188.587 10H186.087ZM186.867 3.02H190.437V3.77H186.867V3.02ZM196.361 10L196.321 8.67V6.45C196.321 6.01667 196.181 5.67667 195.901 5.43C195.621 5.17667 195.241 5.05 194.761 5.05C194.294 5.05 193.911 5.16 193.611 5.38C193.318 5.59333 193.158 5.89 193.131 6.27H192.321C192.348 5.87667 192.468 5.54333 192.681 5.27C192.901 4.99 193.191 4.77667 193.551 4.63C193.911 4.47667 194.321 4.4 194.781 4.4C195.261 4.4 195.678 4.48333 196.031 4.65C196.384 4.81667 196.658 5.05667 196.851 5.37C197.044 5.67667 197.141 6.04667 197.141 6.48V10H196.361ZM194.301 10.12C193.941 10.12 193.624 10.0567 193.351 9.93C193.078 9.80333 192.864 9.62333 192.711 9.39C192.564 9.15 192.491 8.86667 192.491 8.54C192.491 7.97333 192.708 7.53333 193.141 7.22C193.574 6.90667 194.184 6.75 194.971 6.75H196.451V7.39H194.931C194.424 7.39 194.028 7.48667 193.741 7.68C193.454 7.87333 193.311 8.14667 193.311 8.5C193.311 8.79333 193.414 9.02333 193.621 9.19C193.828 9.35 194.098 9.43 194.431 9.43C194.864 9.43 195.244 9.31 195.571 9.07C195.904 8.83 196.174 8.50333 196.381 8.09L196.481 8.73C196.301 9.17 196.028 9.51333 195.661 9.76C195.294 10 194.841 10.12 194.301 10.12ZM202.935 5.38L202.965 4.52H203.735V9.45C203.735 10.2433 203.518 10.85 203.085 11.27C202.658 11.69 202.022 11.9 201.175 11.9C200.708 11.9 200.302 11.8333 199.955 11.7C199.608 11.5667 199.332 11.3667 199.125 11.1C198.925 10.84 198.808 10.5133 198.775 10.12H199.635C199.668 10.46 199.812 10.7233 200.065 10.91C200.325 11.1033 200.708 11.2 201.215 11.2C201.768 11.2 202.188 11.0567 202.475 10.77C202.762 10.49 202.905 10.0867 202.905 9.56V8.69C202.718 8.99667 202.462 9.23667 202.135 9.41C201.815 9.58333 201.452 9.67 201.045 9.67C200.565 9.67 200.142 9.56 199.775 9.34C199.415 9.11333 199.132 8.8 198.925 8.4C198.718 8 198.615 7.54667 198.615 7.04C198.615 6.49333 198.718 6.02667 198.925 5.64C199.138 5.24667 199.432 4.94333 199.805 4.73C200.178 4.51 200.602 4.4 201.075 4.4C201.482 4.4 201.848 4.49 202.175 4.67C202.502 4.85 202.755 5.08667 202.935 5.38ZM201.205 9.01C201.592 9.01 201.938 8.9 202.245 8.68C202.558 8.46 202.778 8.15667 202.905 7.77V6.3C202.778 5.91333 202.558 5.61 202.245 5.39C201.938 5.17 201.592 5.06 201.205 5.06C200.852 5.06 200.542 5.14333 200.275 5.31C200.015 5.47 199.812 5.7 199.665 6C199.518 6.29333 199.445 6.63667 199.445 7.03C199.445 7.41667 199.518 7.76 199.665 8.06C199.812 8.36 200.015 8.59333 200.275 8.76C200.542 8.92667 200.852 9.01 201.205 9.01ZM207.869 10.12C207.309 10.12 206.826 10.0067 206.419 9.78C206.012 9.54667 205.699 9.21667 205.479 8.79C205.266 8.35667 205.159 7.84333 205.159 7.25C205.159 6.65667 205.269 6.15 205.489 5.73C205.709 5.30333 206.022 4.97667 206.429 4.75C206.836 4.51667 207.322 4.4 207.889 4.4C208.742 4.4 209.386 4.63333 209.819 5.1C210.252 5.56667 210.446 6.21 210.399 7.03H205.819V6.38L209.549 6.4C209.522 6 209.359 5.68333 209.059 5.45C208.759 5.21 208.369 5.09 207.889 5.09C207.289 5.09 206.822 5.28333 206.489 5.67C206.156 6.05 205.989 6.58333 205.989 7.27C205.989 7.70333 206.062 8.08333 206.209 8.41C206.362 8.73 206.579 8.98 206.859 9.16C207.139 9.33333 207.476 9.42 207.869 9.42C208.336 9.42 208.726 9.31 209.039 9.09C209.359 8.86333 209.556 8.55667 209.629 8.17H210.459C210.359 8.77667 210.079 9.25333 209.619 9.6C209.159 9.94667 208.576 10.12 207.869 10.12ZM214.493 10.12C213.933 10.12 213.446 10.0033 213.033 9.77C212.619 9.53 212.299 9.19667 212.073 8.77C211.846 8.34333 211.733 7.84 211.733 7.26C211.733 6.68 211.849 6.17667 212.083 5.75C212.316 5.31667 212.639 4.98333 213.053 4.75C213.466 4.51667 213.949 4.4 214.503 4.4C214.929 4.4 215.316 4.48 215.663 4.64C216.016 4.8 216.303 5.02667 216.523 5.32C216.743 5.60667 216.873 5.95 216.913 6.35H216.083C216.023 5.95667 215.849 5.65 215.563 5.43C215.276 5.21 214.923 5.1 214.503 5.1C214.116 5.1 213.776 5.19 213.483 5.37C213.189 5.54333 212.963 5.79 212.803 6.11C212.643 6.43 212.563 6.81333 212.563 7.26C212.563 7.92667 212.736 8.45333 213.083 8.84C213.436 9.22667 213.906 9.42 214.493 9.42C214.746 9.42 214.983 9.37 215.203 9.27C215.429 9.17 215.623 9.02667 215.783 8.84C215.943 8.64667 216.053 8.42333 216.113 8.17H216.943C216.876 8.57667 216.723 8.92333 216.483 9.21C216.243 9.49667 215.949 9.72 215.603 9.88C215.263 10.04 214.893 10.12 214.493 10.12Z" fill="#99BDC6"/>
<path d="M107.48 33V26.02H109.13V27.49L108.98 28.79L110.01 27.49L111.21 26.02H113.16L109.13 30.86V33H107.48ZM111.43 33L109.38 29.23L110.79 28.45L113.35 33H111.43ZM116.804 33.12C116.204 33.12 115.688 33.0033 115.254 32.77C114.828 32.5367 114.498 32.2033 114.264 31.77C114.031 31.3367 113.914 30.82 113.914 30.22C113.914 29.6133 114.031 29.0933 114.264 28.66C114.498 28.2267 114.834 27.8967 115.274 27.67C115.721 27.4367 116.258 27.32 116.884 27.32C117.864 27.32 118.574 27.6 119.014 28.16C119.461 28.7133 119.648 29.4767 119.574 30.45H115.154L115.164 29.38H117.984C117.964 29.1267 117.851 28.9233 117.644 28.77C117.438 28.61 117.181 28.53 116.874 28.53C116.394 28.53 116.041 28.68 115.814 28.98C115.588 29.28 115.474 29.7167 115.474 30.29C115.474 30.5767 115.524 30.84 115.624 31.08C115.724 31.32 115.871 31.5133 116.064 31.66C116.264 31.8 116.511 31.87 116.804 31.87C117.118 31.87 117.381 31.7933 117.594 31.64C117.814 31.4867 117.948 31.2933 117.994 31.06H119.554C119.488 31.6933 119.208 32.1967 118.714 32.57C118.228 32.9367 117.591 33.12 116.804 33.12ZM124.448 30.22V29.47C124.448 29.2167 124.381 29.0133 124.248 28.86C124.115 28.7 123.915 28.62 123.648 28.62C123.348 28.62 123.065 28.72 122.798 28.92C122.531 29.12 122.278 29.4667 122.038 29.96L121.878 28.65C122.051 28.3567 122.241 28.1133 122.448 27.92C122.655 27.72 122.881 27.57 123.128 27.47C123.381 27.37 123.658 27.32 123.958 27.32C124.551 27.32 125.041 27.5033 125.428 27.87C125.815 28.23 126.008 28.7633 126.008 29.47V30.22H124.448ZM120.738 33V27.44H122.238L122.298 28.44V33H120.738ZM130.852 33V29.57C130.852 29.2833 130.779 29.0533 130.632 28.88C130.485 28.7067 130.292 28.62 130.052 28.62C129.779 28.62 129.525 28.7133 129.292 28.9C129.065 29.08 128.825 29.3933 128.572 29.84L128.352 28.52C128.605 28.0867 128.912 27.78 129.272 27.6C129.632 27.4133 129.999 27.32 130.372 27.32C130.799 27.32 131.162 27.41 131.462 27.59C131.769 27.77 132.002 28.02 132.162 28.34C132.329 28.66 132.412 29.0367 132.412 29.47V33H130.852ZM127.142 33V27.44H128.652L128.702 28.43V33H127.142ZM136.316 33.12C135.716 33.12 135.199 33.0033 134.766 32.77C134.339 32.5367 134.009 32.2033 133.776 31.77C133.543 31.3367 133.426 30.82 133.426 30.22C133.426 29.6133 133.543 29.0933 133.776 28.66C134.009 28.2267 134.346 27.8967 134.786 27.67C135.233 27.4367 135.769 27.32 136.396 27.32C137.376 27.32 138.086 27.6 138.526 28.16C138.973 28.7133 139.159 29.4767 139.086 30.45H134.666L134.676 29.38H137.496C137.476 29.1267 137.363 28.9233 137.156 28.77C136.949 28.61 136.693 28.53 136.386 28.53C135.906 28.53 135.553 28.68 135.326 28.98C135.099 29.28 134.986 29.7167 134.986 30.29C134.986 30.5767 135.036 30.84 135.136 31.08C135.236 31.32 135.383 31.5133 135.576 31.66C135.776 31.8 136.023 31.87 136.316 31.87C136.629 31.87 136.893 31.7933 137.106 31.64C137.326 31.4867 137.459 31.2933 137.506 31.06H139.066C138.999 31.6933 138.719 32.1967 138.226 32.57C137.739 32.9367 137.103 33.12 136.316 33.12ZM141.99 33V25.6H143.55V33H141.99ZM140.19 33V31.74H145.37V33H140.19ZM140.89 26.86V25.6H142.77V26.86H140.89ZM148.364 29.63V27.9H150.164V29.63H148.364ZM148.374 33V31.27H150.174V33H148.374Z" fill="#608C9E"/>
<path d="M162.392 33.12C161.865 33.12 161.402 33.02 161.002 32.82C160.608 32.62 160.302 32.3267 160.082 31.94C159.862 31.5533 159.752 31.0833 159.752 30.53H160.612C160.612 31.1167 160.772 31.57 161.092 31.89C161.412 32.21 161.845 32.37 162.392 32.37C162.852 32.37 163.225 32.2633 163.512 32.05C163.805 31.83 163.952 31.5233 163.952 31.13C163.952 30.87 163.875 30.66 163.722 30.5C163.575 30.3333 163.378 30.2033 163.132 30.11C162.892 30.01 162.628 29.9233 162.342 29.85C162.055 29.77 161.765 29.6867 161.472 29.6C161.185 29.5067 160.918 29.3933 160.672 29.26C160.432 29.12 160.238 28.9367 160.092 28.71C159.945 28.4833 159.872 28.1933 159.872 27.84C159.872 27.46 159.968 27.1233 160.162 26.83C160.362 26.5367 160.638 26.31 160.992 26.15C161.352 25.9833 161.775 25.9 162.262 25.9C162.735 25.9 163.158 25.9867 163.532 26.16C163.905 26.3333 164.202 26.58 164.422 26.9C164.642 27.2133 164.758 27.59 164.772 28.03H163.902C163.895 27.75 163.818 27.5067 163.672 27.3C163.525 27.0933 163.328 26.9333 163.082 26.82C162.842 26.7067 162.568 26.65 162.262 26.65C161.815 26.65 161.455 26.7567 161.182 26.97C160.915 27.1767 160.782 27.4567 160.782 27.81C160.782 28.05 160.855 28.2433 161.002 28.39C161.148 28.5367 161.342 28.6567 161.582 28.75C161.828 28.8367 162.095 28.9167 162.382 28.99C162.675 29.0633 162.965 29.1467 163.252 29.24C163.545 29.3267 163.812 29.4433 164.052 29.59C164.298 29.7367 164.495 29.9333 164.642 30.18C164.788 30.4267 164.862 30.74 164.862 31.12C164.862 31.5333 164.752 31.89 164.532 32.19C164.318 32.49 164.025 32.72 163.652 32.88C163.278 33.04 162.858 33.12 162.392 33.12ZM168.845 33.12C168.285 33.12 167.802 33.0067 167.395 32.78C166.989 32.5467 166.675 32.2167 166.455 31.79C166.242 31.3567 166.135 30.8433 166.135 30.25C166.135 29.6567 166.245 29.15 166.465 28.73C166.685 28.3033 166.999 27.9767 167.405 27.75C167.812 27.5167 168.299 27.4 168.865 27.4C169.719 27.4 170.362 27.6333 170.795 28.1C171.229 28.5667 171.422 29.21 171.375 30.03H166.795V29.38L170.525 29.4C170.499 29 170.335 28.6833 170.035 28.45C169.735 28.21 169.345 28.09 168.865 28.09C168.265 28.09 167.799 28.2833 167.465 28.67C167.132 29.05 166.965 29.5833 166.965 30.27C166.965 30.7033 167.039 31.0833 167.185 31.41C167.339 31.73 167.555 31.98 167.835 32.16C168.115 32.3333 168.452 32.42 168.845 32.42C169.312 32.42 169.702 32.31 170.015 32.09C170.335 31.8633 170.532 31.5567 170.605 31.17H171.435C171.335 31.7767 171.055 32.2533 170.595 32.6C170.135 32.9467 169.552 33.12 168.845 33.12ZM174.879 33V25.67H175.699V33H174.879ZM172.779 33V32.33H177.819V33H172.779ZM173.509 26.34V25.67H175.289V26.34H173.509ZM181.173 33V26.88C181.173 26.56 181.227 26.28 181.333 26.04C181.447 25.8 181.62 25.6133 181.853 25.48C182.087 25.34 182.383 25.27 182.743 25.27H184.363V25.94H182.943C182.763 25.94 182.6 25.9667 182.453 26.02C182.313 26.0667 182.203 26.1567 182.123 26.29C182.043 26.4167 182.003 26.6 182.003 26.84V33H181.173ZM179.803 28.19V27.52H183.853V28.19H179.803ZM179.373 33V32.33H184.253V33H179.373ZM186.817 30.27V29.54H189.777V30.27H186.817ZM194.361 33V26.77H192.041V26.02H197.551V26.77H195.231V33H194.361ZM202.865 33L202.825 31.67V29.45C202.825 29.0167 202.685 28.6767 202.405 28.43C202.125 28.1767 201.745 28.05 201.265 28.05C200.798 28.05 200.415 28.16 200.115 28.38C199.822 28.5933 199.662 28.89 199.635 29.27H198.825C198.852 28.8767 198.972 28.5433 199.185 28.27C199.405 27.99 199.695 27.7767 200.055 27.63C200.415 27.4767 200.825 27.4 201.285 27.4C201.765 27.4 202.182 27.4833 202.535 27.65C202.888 27.8167 203.162 28.0567 203.355 28.37C203.548 28.6767 203.645 29.0467 203.645 29.48V33H202.865ZM200.805 33.12C200.445 33.12 200.128 33.0567 199.855 32.93C199.582 32.8033 199.368 32.6233 199.215 32.39C199.068 32.15 198.995 31.8667 198.995 31.54C198.995 30.9733 199.212 30.5333 199.645 30.22C200.078 29.9067 200.688 29.75 201.475 29.75H202.955V30.39H201.435C200.928 30.39 200.532 30.4867 200.245 30.68C199.958 30.8733 199.815 31.1467 199.815 31.5C199.815 31.7933 199.918 32.0233 200.125 32.19C200.332 32.35 200.602 32.43 200.935 32.43C201.368 32.43 201.748 32.31 202.075 32.07C202.408 31.83 202.678 31.5033 202.885 31.09L202.985 31.73C202.805 32.17 202.532 32.5133 202.165 32.76C201.798 33 201.345 33.12 200.805 33.12ZM206.159 27.52V31C206.159 31.42 206.279 31.76 206.519 32.02C206.766 32.28 207.089 32.41 207.489 32.41C207.936 32.41 208.332 32.2433 208.679 31.91C209.026 31.57 209.279 31.0567 209.439 30.37L209.589 31.44C209.389 31.9867 209.089 32.4033 208.689 32.69C208.296 32.9767 207.856 33.12 207.369 33.12C206.956 33.12 206.596 33.0333 206.289 32.86C205.989 32.68 205.752 32.4333 205.579 32.12C205.412 31.8067 205.329 31.44 205.329 31.02V27.52H206.159ZM210.159 27.52V33H209.379L209.329 31.68V27.52H210.159ZM215.943 28.38L215.973 27.52H216.743V32.45C216.743 33.2433 216.526 33.85 216.093 34.27C215.666 34.69 215.029 34.9 214.183 34.9C213.716 34.9 213.309 34.8333 212.963 34.7C212.616 34.5667 212.339 34.3667 212.133 34.1C211.933 33.84 211.816 33.5133 211.783 33.12H212.643C212.676 33.46 212.819 33.7233 213.073 33.91C213.333 34.1033 213.716 34.2 214.223 34.2C214.776 34.2 215.196 34.0567 215.483 33.77C215.769 33.49 215.913 33.0867 215.913 32.56V31.69C215.726 31.9967 215.469 32.2367 215.143 32.41C214.823 32.5833 214.459 32.67 214.053 32.67C213.573 32.67 213.149 32.56 212.783 32.34C212.423 32.1133 212.139 31.8 211.933 31.4C211.726 31 211.623 30.5467 211.623 30.04C211.623 29.4933 211.726 29.0267 211.933 28.64C212.146 28.2467 212.439 27.9433 212.813 27.73C213.186 27.51 213.609 27.4 214.083 27.4C214.489 27.4 214.856 27.49 215.183 27.67C215.509 27.85 215.763 28.0867 215.943 28.38ZM214.213 32.01C214.599 32.01 214.946 31.9 215.253 31.68C215.566 31.46 215.786 31.1567 215.913 30.77V29.3C215.786 28.9133 215.566 28.61 215.253 28.39C214.946 28.17 214.599 28.06 214.213 28.06C213.859 28.06 213.549 28.1433 213.283 28.31C213.023 28.47 212.819 28.7 212.673 29C212.526 29.2933 212.453 29.6367 212.453 30.03C212.453 30.4167 212.526 30.76 212.673 31.06C212.819 31.36 213.023 31.5933 213.283 31.76C213.549 31.9267 213.859 32.01 214.213 32.01ZM222.427 33V29.53C222.427 29.1033 222.303 28.76 222.057 28.5C221.817 28.24 221.497 28.11 221.097 28.11C220.65 28.11 220.253 28.28 219.907 28.62C219.56 28.9533 219.307 29.4633 219.147 30.15L218.997 29.09C219.197 28.5367 219.493 28.1167 219.887 27.83C220.287 27.5433 220.73 27.4 221.217 27.4C221.63 27.4 221.987 27.49 222.287 27.67C222.593 27.8433 222.83 28.0867 222.997 28.4C223.17 28.7133 223.257 29.0833 223.257 29.51V33H222.427ZM218.427 33V25.66H219.257V33H218.427ZM227.771 33C227.437 33 227.157 32.9367 226.931 32.81C226.711 32.6833 226.544 32.5033 226.431 32.27C226.324 32.03 226.271 31.75 226.271 31.43V26.44L227.091 25.94V31.43C227.091 31.59 227.114 31.74 227.161 31.88C227.207 32.0133 227.301 32.1233 227.441 32.21C227.581 32.29 227.784 32.33 228.051 32.33H229.781V33H227.771ZM224.901 28.19V27.52H228.941V28.19H224.901Z" fill="#99BDC6"/>
<path d="M110.25 56.12C109.644 56.12 109.127 56.0133 108.7 55.8C108.274 55.58 107.947 55.2733 107.72 54.88C107.494 54.4867 107.38 54.0267 107.38 53.5V49.02H109.03V53.5C109.03 53.76 109.08 53.9833 109.18 54.17C109.28 54.3567 109.42 54.5033 109.6 54.61C109.787 54.71 110.004 54.76 110.25 54.76C110.504 54.76 110.72 54.71 110.9 54.61C111.08 54.5033 111.22 54.3567 111.32 54.17C111.42 53.9833 111.47 53.76 111.47 53.5V49.02H113.12V53.5C113.12 54.0267 113.007 54.4867 112.78 54.88C112.554 55.2733 112.227 55.58 111.8 55.8C111.374 56.0133 110.857 56.12 110.25 56.12ZM117.214 50.32C117.701 50.32 118.128 50.45 118.494 50.71C118.868 50.9633 119.161 51.31 119.374 51.75C119.588 52.19 119.694 52.68 119.694 53.22C119.694 53.7533 119.588 54.24 119.374 54.68C119.161 55.12 118.868 55.47 118.494 55.73C118.128 55.99 117.701 56.12 117.214 56.12C116.894 56.12 116.598 56.0633 116.324 55.95C116.051 55.83 115.818 55.67 115.624 55.47V57.78H114.064V50.44H115.574L115.604 50.98C115.798 50.7733 116.031 50.6133 116.304 50.5C116.584 50.38 116.888 50.32 117.214 50.32ZM116.814 54.84C117.074 54.84 117.301 54.7667 117.494 54.62C117.694 54.4733 117.851 54.28 117.964 54.04C118.078 53.7933 118.134 53.52 118.134 53.22C118.134 52.9133 118.078 52.64 117.964 52.4C117.851 52.1533 117.694 51.96 117.494 51.82C117.301 51.6733 117.074 51.6 116.814 51.6C116.541 51.6 116.298 51.6833 116.084 51.85C115.871 52.0167 115.718 52.24 115.624 52.52V53.91C115.718 54.19 115.871 54.4167 116.084 54.59C116.298 54.7567 116.541 54.84 116.814 54.84ZM123.708 56C123.335 56 123.005 55.9167 122.718 55.75C122.438 55.5767 122.221 55.34 122.068 55.04C121.915 54.7333 121.838 54.3867 121.838 54V49.51L123.398 48.81V54C123.398 54.1733 123.421 54.3167 123.468 54.43C123.521 54.5367 123.615 54.6167 123.748 54.67C123.888 54.7167 124.081 54.74 124.328 54.74H125.738V56H123.708ZM120.738 51.7V50.44H124.748V51.7H120.738ZM128.982 56V50.44H130.542V56H128.982ZM127.182 56V54.74H132.362V56H127.182ZM127.882 51.7V50.44H129.762V51.7H127.882ZM128.922 49.7V48.24H130.582V49.7H128.922ZM137.686 56V52.08C137.686 51.9267 137.666 51.8067 137.626 51.72C137.586 51.6267 137.509 51.58 137.396 51.58C137.249 51.58 137.116 51.69 136.996 51.91C136.883 52.1233 136.789 52.5 136.716 53.04L136.616 52.29C136.576 51.6833 136.676 51.2033 136.916 50.85C137.156 50.4967 137.479 50.32 137.886 50.32C138.233 50.32 138.519 50.4567 138.746 50.73C138.973 50.9967 139.086 51.39 139.086 51.91V56H137.686ZM133.446 56V50.44H134.806L134.836 51.47V56H133.446ZM135.566 56V52.08C135.566 51.9067 135.539 51.78 135.486 51.7C135.439 51.62 135.366 51.58 135.266 51.58C135.093 51.58 134.956 51.7 134.856 51.94C134.756 52.18 134.669 52.5467 134.596 53.04L134.606 52.23C134.579 51.8433 134.623 51.5067 134.736 51.22C134.849 50.9333 134.999 50.7133 135.186 50.56C135.379 50.4 135.586 50.32 135.806 50.32C136.159 50.32 136.439 50.4667 136.646 50.76C136.853 51.0467 136.956 51.4233 136.956 51.89V56H135.566ZM142.82 56.12C142.22 56.12 141.703 56.0033 141.27 55.77C140.843 55.5367 140.513 55.2033 140.28 54.77C140.047 54.3367 139.93 53.82 139.93 53.22C139.93 52.6133 140.047 52.0933 140.28 51.66C140.513 51.2267 140.85 50.8967 141.29 50.67C141.737 50.4367 142.273 50.32 142.9 50.32C143.88 50.32 144.59 50.6 145.03 51.16C145.477 51.7133 145.663 52.4767 145.59 53.45H141.17L141.18 52.38H144C143.98 52.1267 143.867 51.9233 143.66 51.77C143.453 51.61 143.197 51.53 142.89 51.53C142.41 51.53 142.057 51.68 141.83 51.98C141.603 52.28 141.49 52.7167 141.49 53.29C141.49 53.5767 141.54 53.84 141.64 54.08C141.74 54.32 141.887 54.5133 142.08 54.66C142.28 54.8 142.527 54.87 142.82 54.87C143.133 54.87 143.397 54.7933 143.61 54.64C143.83 54.4867 143.963 54.2933 144.01 54.06H145.57C145.503 54.6933 145.223 55.1967 144.73 55.57C144.243 55.9367 143.607 56.12 142.82 56.12ZM148.364 52.63V50.9H150.164V52.63H148.364ZM148.374 56V54.27H150.174V56H148.374Z" fill="#608C9E"/>
<path d="M159.852 56V55.37C160.792 54.6567 161.545 54.0333 162.112 53.5C162.685 52.9667 163.102 52.4967 163.362 52.09C163.622 51.6767 163.752 51.3 163.752 50.96C163.752 50.5667 163.632 50.25 163.392 50.01C163.152 49.77 162.808 49.65 162.362 49.65C161.908 49.65 161.532 49.7867 161.232 50.06C160.938 50.3333 160.775 50.72 160.742 51.22H159.872C159.905 50.7267 160.032 50.3067 160.252 49.96C160.472 49.6133 160.765 49.35 161.132 49.17C161.498 48.99 161.912 48.9 162.372 48.9C162.852 48.9 163.262 48.9867 163.602 49.16C163.942 49.3267 164.202 49.56 164.382 49.86C164.562 50.16 164.652 50.51 164.652 50.91C164.652 51.35 164.535 51.79 164.302 52.23C164.068 52.6633 163.692 53.1267 163.172 53.62C162.652 54.1067 161.965 54.65 161.112 55.25H164.672V56H159.852ZM166.355 56V55.37C167.295 54.6567 168.049 54.0333 168.615 53.5C169.189 52.9667 169.605 52.4967 169.865 52.09C170.125 51.6767 170.255 51.3 170.255 50.96C170.255 50.5667 170.135 50.25 169.895 50.01C169.655 49.77 169.312 49.65 168.865 49.65C168.412 49.65 168.035 49.7867 167.735 50.06C167.442 50.3333 167.279 50.72 167.245 51.22H166.375C166.409 50.7267 166.535 50.3067 166.755 49.96C166.975 49.6133 167.269 49.35 167.635 49.17C168.002 48.99 168.415 48.9 168.875 48.9C169.355 48.9 169.765 48.9867 170.105 49.16C170.445 49.3267 170.705 49.56 170.885 49.86C171.065 50.16 171.155 50.51 171.155 50.91C171.155 51.35 171.039 51.79 170.805 52.23C170.572 52.6633 170.195 53.1267 169.675 53.62C169.155 54.1067 168.469 54.65 167.615 55.25H171.175V56H166.355ZM181.273 53.5L181.803 54.85L182.333 53.5L183.593 50.52H184.463L181.883 56.59C181.737 56.93 181.58 57.1933 181.413 57.38C181.253 57.5733 181.07 57.7067 180.863 57.78C180.663 57.86 180.427 57.9 180.153 57.9H179.193V57.23H180.113C180.28 57.23 180.423 57.1933 180.543 57.12C180.67 57.0467 180.783 56.9333 180.883 56.78C180.983 56.6267 181.087 56.4233 181.193 56.17L181.363 55.76L179.143 50.52H180.013L181.273 53.5ZM188.357 56.12C187.797 56.12 187.314 56.0067 186.907 55.78C186.501 55.5467 186.187 55.2167 185.967 54.79C185.754 54.3567 185.647 53.8433 185.647 53.25C185.647 52.6567 185.757 52.15 185.977 51.73C186.197 51.3033 186.511 50.9767 186.917 50.75C187.324 50.5167 187.811 50.4 188.377 50.4C189.231 50.4 189.874 50.6333 190.307 51.1C190.741 51.5667 190.934 52.21 190.887 53.03H186.307V52.38L190.037 52.4C190.011 52 189.847 51.6833 189.547 51.45C189.247 51.21 188.857 51.09 188.377 51.09C187.777 51.09 187.311 51.2833 186.977 51.67C186.644 52.05 186.477 52.5833 186.477 53.27C186.477 53.7033 186.551 54.0833 186.697 54.41C186.851 54.73 187.067 54.98 187.347 55.16C187.627 55.3333 187.964 55.42 188.357 55.42C188.824 55.42 189.214 55.31 189.527 55.09C189.847 54.8633 190.044 54.5567 190.117 54.17H190.947C190.847 54.7767 190.567 55.2533 190.107 55.6C189.647 55.9467 189.064 56.12 188.357 56.12ZM196.361 56L196.321 54.67V52.45C196.321 52.0167 196.181 51.6767 195.901 51.43C195.621 51.1767 195.241 51.05 194.761 51.05C194.294 51.05 193.911 51.16 193.611 51.38C193.318 51.5933 193.158 51.89 193.131 52.27H192.321C192.348 51.8767 192.468 51.5433 192.681 51.27C192.901 50.99 193.191 50.7767 193.551 50.63C193.911 50.4767 194.321 50.4 194.781 50.4C195.261 50.4 195.678 50.4833 196.031 50.65C196.384 50.8167 196.658 51.0567 196.851 51.37C197.044 51.6767 197.141 52.0467 197.141 52.48V56H196.361ZM194.301 56.12C193.941 56.12 193.624 56.0567 193.351 55.93C193.078 55.8033 192.864 55.6233 192.711 55.39C192.564 55.15 192.491 54.8667 192.491 54.54C192.491 53.9733 192.708 53.5333 193.141 53.22C193.574 52.9067 194.184 52.75 194.971 52.75H196.451V53.39H194.931C194.424 53.39 194.028 53.4867 193.741 53.68C193.454 53.8733 193.311 54.1467 193.311 54.5C193.311 54.7933 193.414 55.0233 193.621 55.19C193.828 55.35 194.098 55.43 194.431 55.43C194.864 55.43 195.244 55.31 195.571 55.07C195.904 54.83 196.174 54.5033 196.381 54.09L196.481 54.73C196.301 55.17 196.028 55.5133 195.661 55.76C195.294 56 194.841 56.12 194.301 56.12ZM202.905 52.75V52.12C202.905 51.8133 202.812 51.57 202.625 51.39C202.438 51.2033 202.172 51.11 201.825 51.11C201.372 51.11 200.972 51.2833 200.625 51.63C200.285 51.9767 200.025 52.49 199.845 53.17L199.705 52.25C199.845 51.8433 200.022 51.5033 200.235 51.23C200.448 50.9567 200.695 50.75 200.975 50.61C201.262 50.47 201.578 50.4 201.925 50.4C202.465 50.4 202.902 50.5533 203.235 50.86C203.568 51.16 203.735 51.58 203.735 52.12V52.75H202.905ZM199.185 56V50.52H199.945L200.015 51.85V56H199.185ZM207.959 56.12C207.479 56.12 207.059 56.0367 206.699 55.87C206.339 55.7033 206.059 55.4667 205.859 55.16C205.666 54.8467 205.566 54.4733 205.559 54.04H206.349C206.356 54.48 206.506 54.8267 206.799 55.08C207.092 55.3333 207.476 55.46 207.949 55.46C208.369 55.46 208.706 55.38 208.959 55.22C209.212 55.06 209.339 54.8433 209.339 54.57C209.339 54.3567 209.269 54.1867 209.129 54.06C208.996 53.9333 208.819 53.8333 208.599 53.76C208.386 53.6867 208.146 53.6233 207.879 53.57C207.619 53.5167 207.359 53.4567 207.099 53.39C206.839 53.3233 206.599 53.24 206.379 53.14C206.166 53.0333 205.989 52.89 205.849 52.71C205.716 52.5233 205.649 52.2833 205.649 51.99C205.649 51.6833 205.736 51.4133 205.909 51.18C206.082 50.94 206.329 50.75 206.649 50.61C206.976 50.47 207.362 50.4 207.809 50.4C208.489 50.4 209.029 50.5567 209.429 50.87C209.836 51.1833 210.056 51.61 210.089 52.15H209.299C209.279 51.8033 209.136 51.5367 208.869 51.35C208.609 51.1567 208.256 51.06 207.809 51.06C207.376 51.06 207.046 51.1467 206.819 51.32C206.599 51.4933 206.489 51.7067 206.489 51.96C206.489 52.1533 206.556 52.3067 206.689 52.42C206.822 52.5267 206.999 52.6133 207.219 52.68C207.439 52.74 207.679 52.7933 207.939 52.84C208.206 52.88 208.469 52.9333 208.729 53C208.989 53.0667 209.226 53.16 209.439 53.28C209.659 53.3933 209.836 53.55 209.969 53.75C210.102 53.9433 210.169 54.2 210.169 54.52C210.169 55.02 209.966 55.4133 209.559 55.7C209.159 55.98 208.626 56.12 207.959 56.12Z" fill="#99BDC6"/>
<path d="M107.83 79V72.02H109.48V77.65H112.86V79H107.83ZM116.754 79.12C116.161 79.12 115.651 79.0033 115.224 78.77C114.798 78.5367 114.468 78.2033 114.234 77.77C114.008 77.3367 113.894 76.82 113.894 76.22C113.894 75.6133 114.008 75.0967 114.234 74.67C114.468 74.2367 114.798 73.9033 115.224 73.67C115.651 73.4367 116.161 73.32 116.754 73.32C117.648 73.32 118.344 73.5767 118.844 74.09C119.351 74.6033 119.604 75.3133 119.604 76.22C119.604 76.82 119.491 77.3367 119.264 77.77C119.038 78.2033 118.711 78.5367 118.284 78.77C117.858 79.0033 117.348 79.12 116.754 79.12ZM116.754 77.86C117.154 77.86 117.468 77.7133 117.694 77.42C117.928 77.1267 118.044 76.7267 118.044 76.22C118.044 75.7067 117.928 75.3067 117.694 75.02C117.468 74.7267 117.154 74.58 116.754 74.58C116.348 74.58 116.028 74.7267 115.794 75.02C115.568 75.3067 115.454 75.7067 115.454 76.22C115.454 76.7267 115.568 77.1267 115.794 77.42C116.028 77.7133 116.348 77.86 116.754 77.86ZM123.338 79.12C122.751 79.12 122.245 79.0033 121.818 78.77C121.398 78.5367 121.075 78.2033 120.848 77.77C120.628 77.3367 120.518 76.82 120.518 76.22C120.518 75.6067 120.635 75.0833 120.868 74.65C121.108 74.2167 121.441 73.8867 121.868 73.66C122.295 73.4333 122.798 73.32 123.378 73.32C123.885 73.32 124.331 73.41 124.718 73.59C125.111 73.77 125.421 74.0233 125.648 74.35C125.881 74.67 126.008 75.0533 126.028 75.5H124.468C124.415 75.1933 124.295 74.9667 124.108 74.82C123.928 74.6667 123.685 74.59 123.378 74.59C123.125 74.59 122.898 74.6533 122.698 74.78C122.505 74.9067 122.351 75.09 122.238 75.33C122.131 75.57 122.078 75.8667 122.078 76.22C122.078 76.7467 122.198 77.1533 122.438 77.44C122.685 77.7267 122.985 77.87 123.338 77.87C123.545 77.87 123.725 77.8333 123.878 77.76C124.038 77.6867 124.171 77.5833 124.278 77.45C124.385 77.31 124.458 77.1533 124.498 76.98H126.058C126.018 77.4133 125.878 77.79 125.638 78.11C125.398 78.43 125.081 78.68 124.688 78.86C124.295 79.0333 123.845 79.12 123.338 79.12ZM130.842 79L130.792 78V75.26C130.792 75 130.695 74.7967 130.502 74.65C130.309 74.4967 130.042 74.42 129.702 74.42C129.375 74.42 129.109 74.49 128.902 74.63C128.702 74.7633 128.585 74.9533 128.552 75.2H127.042C127.075 74.8067 127.209 74.47 127.442 74.19C127.675 73.91 127.989 73.6967 128.382 73.55C128.782 73.3967 129.245 73.32 129.772 73.32C130.292 73.32 130.745 73.4 131.132 73.56C131.519 73.7133 131.815 73.9433 132.022 74.25C132.235 74.55 132.342 74.92 132.342 75.36V79H130.842ZM129.062 79.12C128.695 79.12 128.372 79.05 128.092 78.91C127.812 78.7633 127.595 78.5633 127.442 78.31C127.289 78.0567 127.212 77.77 127.212 77.45C127.212 76.8767 127.432 76.4333 127.872 76.12C128.319 75.8 128.932 75.64 129.712 75.64H130.942V76.72L129.672 76.73C129.385 76.73 129.155 76.7833 128.982 76.89C128.815 76.99 128.732 77.1433 128.732 77.35C128.732 77.4967 128.792 77.6233 128.912 77.73C129.039 77.8367 129.215 77.89 129.442 77.89C129.755 77.89 130.032 77.8133 130.272 77.66C130.519 77.5 130.722 77.2833 130.882 77.01L131.052 78.06C130.885 78.4267 130.629 78.6967 130.282 78.87C129.942 79.0367 129.535 79.12 129.062 79.12ZM136.716 79C136.343 79 136.013 78.9167 135.726 78.75C135.446 78.5767 135.229 78.34 135.076 78.04C134.923 77.7333 134.846 77.3867 134.846 77V72.51L136.406 71.81V77C136.406 77.1733 136.429 77.3167 136.476 77.43C136.529 77.5367 136.623 77.6167 136.756 77.67C136.896 77.7167 137.089 77.74 137.336 77.74H138.746V79H136.716ZM133.746 74.7V73.44H137.756V74.7H133.746ZM141.99 79V73.44H143.55V79H141.99ZM140.19 79V77.74H145.37V79H140.19ZM140.89 74.7V73.44H142.77V74.7H140.89ZM141.93 72.7V71.24H143.59V72.7H141.93ZM149.274 79.12C148.68 79.12 148.17 79.0033 147.744 78.77C147.317 78.5367 146.987 78.2033 146.754 77.77C146.527 77.3367 146.414 76.82 146.414 76.22C146.414 75.6133 146.527 75.0967 146.754 74.67C146.987 74.2367 147.317 73.9033 147.744 73.67C148.17 73.4367 148.68 73.32 149.274 73.32C150.167 73.32 150.864 73.5767 151.364 74.09C151.87 74.6033 152.124 75.3133 152.124 76.22C152.124 76.82 152.01 77.3367 151.784 77.77C151.557 78.2033 151.23 78.5367 150.804 78.77C150.377 79.0033 149.867 79.12 149.274 79.12ZM149.274 77.86C149.674 77.86 149.987 77.7133 150.214 77.42C150.447 77.1267 150.564 76.7267 150.564 76.22C150.564 75.7067 150.447 75.3067 150.214 75.02C149.987 74.7267 149.674 74.58 149.274 74.58C148.867 74.58 148.547 74.7267 148.314 75.02C148.087 75.3067 147.974 75.7067 147.974 76.22C147.974 76.7267 148.087 77.1267 148.314 77.42C148.547 77.7133 148.867 77.86 149.274 77.86ZM156.868 79V75.57C156.868 75.2833 156.794 75.0533 156.648 74.88C156.501 74.7067 156.308 74.62 156.068 74.62C155.794 74.62 155.541 74.7133 155.308 74.9C155.081 75.08 154.841 75.3933 154.588 75.84L154.368 74.52C154.621 74.0867 154.928 73.78 155.288 73.6C155.648 73.4133 156.014 73.32 156.388 73.32C156.814 73.32 157.178 73.41 157.478 73.59C157.784 73.77 158.018 74.02 158.178 74.34C158.344 74.66 158.428 75.0367 158.428 75.47V79H156.868ZM153.158 79V73.44H154.668L154.718 74.43V79H153.158ZM161.372 75.63V73.9H163.172V75.63H161.372ZM161.382 79V77.27H163.182V79H161.382Z" fill="#608C9E"/>
<path d="M173.429 77.11V76.36H177.219V77.11H173.429ZM174.679 72.02H175.889L178.179 79H177.289L175.709 74.16L175.289 72.75L174.869 74.17L173.279 79H172.399L174.679 72.02ZM182.083 73.4C182.57 73.4 183 73.52 183.373 73.76C183.747 74 184.037 74.3367 184.243 74.77C184.457 75.1967 184.563 75.6933 184.563 76.26C184.563 76.82 184.457 77.3167 184.243 77.75C184.037 78.1767 183.747 78.5133 183.373 78.76C183 79 182.57 79.12 182.083 79.12C181.677 79.12 181.31 79.0333 180.983 78.86C180.657 78.6867 180.397 78.4567 180.203 78.17L180.173 79H179.393V71.67H180.223V74.32C180.417 74.0333 180.673 73.81 180.993 73.65C181.32 73.4833 181.683 73.4 182.083 73.4ZM181.923 78.41C182.29 78.41 182.607 78.32 182.873 78.14C183.147 77.96 183.357 77.71 183.503 77.39C183.657 77.0633 183.733 76.6867 183.733 76.26C183.733 75.8267 183.657 75.45 183.503 75.13C183.357 74.8033 183.147 74.5533 182.873 74.38C182.607 74.2 182.29 74.11 181.923 74.11C181.543 74.11 181.2 74.2133 180.893 74.42C180.593 74.62 180.37 74.9067 180.223 75.28V77.23C180.37 77.5967 180.593 77.8867 180.893 78.1C181.2 78.3067 181.543 78.41 181.923 78.41ZM188.357 79.12C187.797 79.12 187.314 79.0067 186.907 78.78C186.501 78.5467 186.187 78.2167 185.967 77.79C185.754 77.3567 185.647 76.8433 185.647 76.25C185.647 75.6567 185.757 75.15 185.977 74.73C186.197 74.3033 186.511 73.9767 186.917 73.75C187.324 73.5167 187.811 73.4 188.377 73.4C189.231 73.4 189.874 73.6333 190.307 74.1C190.741 74.5667 190.934 75.21 190.887 76.03H186.307V75.38L190.037 75.4C190.011 75 189.847 74.6833 189.547 74.45C189.247 74.21 188.857 74.09 188.377 74.09C187.777 74.09 187.311 74.2833 186.977 74.67C186.644 75.05 186.477 75.5833 186.477 76.27C186.477 76.7033 186.551 77.0833 186.697 77.41C186.851 77.73 187.067 77.98 187.347 78.16C187.627 78.3333 187.964 78.42 188.357 78.42C188.824 78.42 189.214 78.31 189.527 78.09C189.847 77.8633 190.044 77.5567 190.117 77.17H190.947C190.847 77.7767 190.567 78.2533 190.107 78.6C189.647 78.9467 189.064 79.12 188.357 79.12ZM196.401 75.75V75.12C196.401 74.8133 196.308 74.57 196.121 74.39C195.934 74.2033 195.668 74.11 195.321 74.11C194.868 74.11 194.468 74.2833 194.121 74.63C193.781 74.9767 193.521 75.49 193.341 76.17L193.201 75.25C193.341 74.8433 193.518 74.5033 193.731 74.23C193.944 73.9567 194.191 73.75 194.471 73.61C194.758 73.47 195.074 73.4 195.421 73.4C195.961 73.4 196.398 73.5533 196.731 73.86C197.064 74.16 197.231 74.58 197.231 75.12V75.75H196.401ZM192.681 79V73.52H193.441L193.511 74.85V79H192.681ZM201.045 73.4C201.438 73.4 201.798 73.4833 202.125 73.65C202.452 73.81 202.712 74.0333 202.905 74.32V71.67H203.725V79H202.955L202.925 78.17C202.732 78.4567 202.472 78.6867 202.145 78.86C201.818 79.0333 201.452 79.12 201.045 79.12C200.558 79.12 200.128 79 199.755 78.76C199.382 78.5133 199.088 78.1767 198.875 77.75C198.662 77.3167 198.555 76.82 198.555 76.26C198.555 75.6933 198.662 75.1967 198.875 74.77C199.088 74.3367 199.382 74 199.755 73.76C200.128 73.52 200.558 73.4 201.045 73.4ZM201.205 78.41C201.585 78.41 201.928 78.3067 202.235 78.1C202.542 77.8867 202.765 77.5967 202.905 77.23V75.28C202.765 74.9067 202.542 74.62 202.235 74.42C201.928 74.2133 201.585 74.11 201.205 74.11C200.838 74.11 200.518 74.2 200.245 74.38C199.978 74.5533 199.768 74.8033 199.615 75.13C199.468 75.45 199.395 75.8267 199.395 76.26C199.395 76.6867 199.468 77.0633 199.615 77.39C199.768 77.71 199.978 77.96 200.245 78.14C200.518 78.32 200.838 78.41 201.205 78.41ZM207.869 79.12C207.309 79.12 206.826 79.0067 206.419 78.78C206.012 78.5467 205.699 78.2167 205.479 77.79C205.266 77.3567 205.159 76.8433 205.159 76.25C205.159 75.6567 205.269 75.15 205.489 74.73C205.709 74.3033 206.022 73.9767 206.429 73.75C206.836 73.5167 207.322 73.4 207.889 73.4C208.742 73.4 209.386 73.6333 209.819 74.1C210.252 74.5667 210.446 75.21 210.399 76.03H205.819V75.38L209.549 75.4C209.522 75 209.359 74.6833 209.059 74.45C208.759 74.21 208.369 74.09 207.889 74.09C207.289 74.09 206.822 74.2833 206.489 74.67C206.156 75.05 205.989 75.5833 205.989 76.27C205.989 76.7033 206.062 77.0833 206.209 77.41C206.362 77.73 206.579 77.98 206.859 78.16C207.139 78.3333 207.476 78.42 207.869 78.42C208.336 78.42 208.726 78.31 209.039 78.09C209.359 77.8633 209.556 77.5567 209.629 77.17H210.459C210.359 77.7767 210.079 78.2533 209.619 78.6C209.159 78.9467 208.576 79.12 207.869 79.12ZM214.373 79.12C213.813 79.12 213.329 79.0067 212.923 78.78C212.516 78.5467 212.203 78.2167 211.983 77.79C211.769 77.3567 211.663 76.8433 211.663 76.25C211.663 75.6567 211.773 75.15 211.993 74.73C212.213 74.3033 212.526 73.9767 212.933 73.75C213.339 73.5167 213.826 73.4 214.393 73.4C215.246 73.4 215.889 73.6333 216.323 74.1C216.756 74.5667 216.949 75.21 216.903 76.03H212.323V75.38L216.053 75.4C216.026 75 215.863 74.6833 215.563 74.45C215.263 74.21 214.873 74.09 214.393 74.09C213.793 74.09 213.326 74.2833 212.993 74.67C212.659 75.05 212.493 75.5833 212.493 76.27C212.493 76.7033 212.566 77.0833 212.713 77.41C212.866 77.73 213.083 77.98 213.363 78.16C213.643 78.3333 213.979 78.42 214.373 78.42C214.839 78.42 215.229 78.31 215.543 78.09C215.863 77.8633 216.059 77.5567 216.133 77.17H216.963C216.863 77.7767 216.583 78.2533 216.123 78.6C215.663 78.9467 215.079 79.12 214.373 79.12ZM222.427 79V75.52C222.427 75.1 222.303 74.76 222.057 74.5C221.817 74.24 221.497 74.11 221.097 74.11C220.65 74.11 220.253 74.28 219.907 74.62C219.56 74.9533 219.307 75.4633 219.147 76.15L218.997 75.08C219.197 74.5333 219.493 74.1167 219.887 73.83C220.287 73.5433 220.73 73.4 221.217 73.4C221.63 73.4 221.987 73.49 222.287 73.67C222.593 73.8433 222.83 74.0867 222.997 74.4C223.17 74.7133 223.257 75.08 223.257 75.5V79H222.427ZM218.427 79V73.52H219.207L219.257 74.84V79H218.427ZM227.471 79.12C226.991 79.12 226.571 79.0367 226.211 78.87C225.851 78.7033 225.571 78.4667 225.371 78.16C225.177 77.8467 225.077 77.4733 225.071 77.04H225.861C225.867 77.48 226.017 77.8267 226.311 78.08C226.604 78.3333 226.987 78.46 227.461 78.46C227.881 78.46 228.217 78.38 228.471 78.22C228.724 78.06 228.851 77.8433 228.851 77.57C228.851 77.3567 228.781 77.1867 228.641 77.06C228.507 76.9333 228.331 76.8333 228.111 76.76C227.897 76.6867 227.657 76.6233 227.391 76.57C227.131 76.5167 226.871 76.4567 226.611 76.39C226.351 76.3233 226.111 76.24 225.891 76.14C225.677 76.0333 225.501 75.89 225.361 75.71C225.227 75.5233 225.161 75.2833 225.161 74.99C225.161 74.6833 225.247 74.4133 225.421 74.18C225.594 73.94 225.841 73.75 226.161 73.61C226.487 73.47 226.874 73.4 227.321 73.4C228.001 73.4 228.541 73.5567 228.941 73.87C229.347 74.1833 229.567 74.61 229.601 75.15H228.811C228.791 74.8033 228.647 74.5367 228.381 74.35C228.121 74.1567 227.767 74.06 227.321 74.06C226.887 74.06 226.557 74.1467 226.331 74.32C226.111 74.4933 226.001 74.7067 226.001 74.96C226.001 75.1533 226.067 75.3067 226.201 75.42C226.334 75.5267 226.511 75.6133 226.731 75.68C226.951 75.74 227.191 75.7933 227.451 75.84C227.717 75.88 227.981 75.9333 228.241 76C228.501 76.0667 228.737 76.16 228.951 76.28C229.171 76.3933 229.347 76.55 229.481 76.75C229.614 76.9433 229.681 77.2 229.681 77.52C229.681 78.02 229.477 78.4133 229.071 78.7C228.671 78.98 228.137 79.12 227.471 79.12ZM235.435 79V75.53C235.435 75.1033 235.311 74.76 235.065 74.5C234.825 74.24 234.505 74.11 234.105 74.11C233.658 74.11 233.261 74.28 232.915 74.62C232.568 74.9533 232.315 75.4633 232.155 76.15L232.005 75.09C232.205 74.5367 232.501 74.1167 232.895 73.83C233.295 73.5433 233.738 73.4 234.225 73.4C234.638 73.4 234.995 73.49 235.295 73.67C235.601 73.8433 235.838 74.0867 236.005 74.4C236.178 74.7133 236.265 75.0833 236.265 75.51V79H235.435ZM231.435 79V71.66H232.265V79H231.435ZM239.978 79V73.52H240.808V79H239.978ZM237.878 79V78.33H242.728V79H237.878ZM238.618 74.19V73.52H240.398V74.19H238.618ZM239.908 72.51V71.55H240.868V72.51H239.908ZM248.432 75.75V75.12C248.432 74.8133 248.339 74.57 248.152 74.39C247.966 74.2033 247.699 74.11 247.352 74.11C246.899 74.11 246.499 74.2833 246.152 74.63C245.812 74.9767 245.552 75.49 245.372 76.17L245.232 75.25C245.372 74.8433 245.549 74.5033 245.762 74.23C245.976 73.9567 246.222 73.75 246.502 73.61C246.789 73.47 247.106 73.4 247.452 73.4C247.992 73.4 248.429 73.5533 248.762 73.86C249.096 74.16 249.262 74.58 249.262 75.12V75.75H248.432ZM244.712 79V73.52H245.472L245.542 74.85V79H244.712ZM253.396 79.12C252.836 79.12 252.353 79.0067 251.946 78.78C251.54 78.5467 251.226 78.2167 251.006 77.79C250.793 77.3567 250.686 76.8433 250.686 76.25C250.686 75.6567 250.796 75.15 251.016 74.73C251.236 74.3033 251.55 73.9767 251.956 73.75C252.363 73.5167 252.85 73.4 253.416 73.4C254.27 73.4 254.913 73.6333 255.346 74.1C255.78 74.5667 255.973 75.21 255.926 76.03H251.346V75.38L255.076 75.4C255.05 75 254.886 74.6833 254.586 74.45C254.286 74.21 253.896 74.09 253.416 74.09C252.816 74.09 252.35 74.2833 252.016 74.67C251.683 75.05 251.516 75.5833 251.516 76.27C251.516 76.7033 251.59 77.0833 251.736 77.41C251.89 77.73 252.106 77.98 252.386 78.16C252.666 78.3333 253.003 78.42 253.396 78.42C253.863 78.42 254.253 78.31 254.566 78.09C254.886 77.8633 255.083 77.5567 255.156 77.17H255.986C255.886 77.7767 255.606 78.2533 255.146 78.6C254.686 78.9467 254.103 79.12 253.396 79.12ZM259.3 79V77.94H260.36V79L259.74 80.73H259.02L259.27 80.23L259.92 78.99L259.3 79ZM272.858 79.12C272.331 79.12 271.868 79.0133 271.468 78.8C271.068 78.58 270.755 78.2767 270.528 77.89C270.301 77.4967 270.188 77.0433 270.188 76.53V72.02H271.068V76.53C271.068 76.8967 271.141 77.2167 271.288 77.49C271.441 77.7633 271.651 77.98 271.918 78.14C272.185 78.2933 272.498 78.37 272.858 78.37C273.218 78.37 273.528 78.2933 273.788 78.14C274.055 77.98 274.261 77.7633 274.408 77.49C274.561 77.2167 274.638 76.8967 274.638 76.53V72.02H275.508V76.53C275.508 77.0433 275.395 77.4967 275.168 77.89C274.948 78.2767 274.638 78.58 274.238 78.8C273.845 79.0133 273.385 79.12 272.858 79.12ZM276.992 79V72.02H277.862V73.94L277.812 75.28L278.802 74.2L280.922 72.02H282.032L277.862 76.41V79H276.992ZM281.242 79L278.472 75.04L279.182 74.58L282.292 79H281.242Z" fill="#99BDC6"/>
<g clip-path="url(#clip0_19_4)">
<path d="M51.9463 20.0375C51.7129 20.0375 51.4796 19.9792 51.2754 19.8625C45.6754 16.975 40.8338 15.75 35.0296 15.75C29.2546 15.75 23.7713 17.1208 18.7838 19.8625C18.0838 20.2417 17.2088 19.9792 16.8004 19.2792C16.4213 18.5792 16.6838 17.675 17.3838 17.2958C22.8088 14.35 28.7588 12.8333 35.0296 12.8333C41.2421 12.8333 46.6671 14.2042 52.6171 17.2667C53.3463 17.6458 53.6088 18.5208 53.2296 19.2208C52.9671 19.7458 52.4713 20.0375 51.9463 20.0375ZM10.2088 35.35C9.91709 35.35 9.62542 35.2625 9.36292 35.0875C8.69209 34.6208 8.54626 33.7167 9.01292 33.0458C11.9004 28.9625 15.5754 25.7542 19.9504 23.5083C29.1088 18.7833 40.8338 18.7542 50.0213 23.4792C54.3963 25.725 58.0713 28.9042 60.9588 32.9583C61.4254 33.6 61.2796 34.5333 60.6088 35C59.9379 35.4667 59.0338 35.3208 58.5671 34.65C55.9421 30.975 52.6171 28.0875 48.6796 26.075C40.3088 21.7875 29.6046 21.7875 21.2629 26.1042C17.2963 28.1458 13.9713 31.0625 11.3463 34.7375C11.1129 35.1458 10.6754 35.35 10.2088 35.35ZM28.4379 70.5542C28.0588 70.5542 27.6796 70.4083 27.4171 70.1167C24.8796 67.5792 23.5088 65.9458 21.5546 62.4167C19.5421 58.8292 18.4921 54.4542 18.4921 49.7583C18.4921 41.0958 25.9004 34.0375 35.0004 34.0375C44.1004 34.0375 51.5088 41.0958 51.5088 49.7583C51.5088 50.575 50.8671 51.2167 50.0504 51.2167C49.2338 51.2167 48.5921 50.575 48.5921 49.7583C48.5921 42.7 42.4963 36.9542 35.0004 36.9542C27.5046 36.9542 21.4088 42.7 21.4088 49.7583C21.4088 53.9583 22.3421 57.8375 24.1213 60.9875C25.9879 64.3417 27.2713 65.7708 29.5171 68.0458C30.0713 68.6292 30.0713 69.5333 29.5171 70.1167C29.1963 70.4083 28.8171 70.5542 28.4379 70.5542ZM49.3504 65.1583C45.8796 65.1583 42.8171 64.2833 40.3088 62.5625C35.9629 59.6167 33.3671 54.8333 33.3671 49.7583C33.3671 48.9417 34.0088 48.3 34.8254 48.3C35.6421 48.3 36.2838 48.9417 36.2838 49.7583C36.2838 53.8708 38.3838 57.75 41.9421 60.1417C44.0129 61.5417 46.4338 62.2125 49.3504 62.2125C50.0504 62.2125 51.2171 62.125 52.3838 61.9208C53.1713 61.775 53.9296 62.3 54.0754 63.1167C54.2213 63.9042 53.6963 64.6625 52.8796 64.8083C51.2171 65.1292 49.7588 65.1583 49.3504 65.1583ZM43.4879 71.1667C43.3713 71.1667 43.2254 71.1375 43.1088 71.1083C38.4713 69.825 35.4379 68.1042 32.2588 64.9833C28.1754 60.9292 25.9296 55.5333 25.9296 49.7583C25.9296 45.0333 29.9546 41.1833 34.9129 41.1833C39.8713 41.1833 43.8963 45.0333 43.8963 49.7583C43.8963 52.8792 46.6088 55.4167 49.9629 55.4167C53.3171 55.4167 56.0296 52.8792 56.0296 49.7583C56.0296 38.7625 46.5504 29.8375 34.8838 29.8375C26.6004 29.8375 19.0171 34.4458 15.6046 41.5917C14.4671 43.9542 13.8838 46.725 13.8838 49.7583C13.8838 52.0333 14.0879 55.6208 15.8379 60.2875C16.1296 61.0458 15.7504 61.8917 14.9921 62.1542C14.2338 62.4458 13.3879 62.0375 13.1254 61.3083C11.6963 57.4875 10.9963 53.6958 10.9963 49.7583C10.9963 46.2583 11.6671 43.0792 12.9796 40.3083C16.8588 32.1708 25.4629 26.8917 34.8838 26.8917C48.1546 26.8917 58.9463 37.1292 58.9463 49.7292C58.9463 54.4542 54.9213 58.3042 49.9629 58.3042C45.0046 58.3042 40.9796 54.4542 40.9796 49.7292C40.9796 46.6083 38.2671 44.0708 34.9129 44.0708C31.5588 44.0708 28.8463 46.6083 28.8463 49.7292C28.8463 54.7167 30.7713 59.3833 34.3004 62.8833C37.0713 65.625 39.7254 67.1417 43.8379 68.2792C44.6254 68.4833 45.0629 69.3 44.8588 70.0583C44.7129 70.7292 44.1004 71.1667 43.4879 71.1667Z" fill="#608C9E"/>
</g>
<rect x="107" y="92" width="21" height="13" fill="#608C9E"/>
<rect x="130" y="92" width="21" height="13" fill="#35596C"/>
<rect x="153" y="92" width="21" height="13" fill="#0A1C2D"/>
<defs>
<clipPath id="clip0_19_4">
<rect width="70" height="70" fill="white" transform="translate(0.000427246 7)"/>
</clipPath>
</defs>
</svg>
