<svg width="12" height="12" viewBox="0 0 12 12" fill="none" xmlns="http://www.w3.org/2000/svg">
<g clip-path="url(#clip0_3_98)">
<path d="M6 3.5C4.62 3.5 3.5 4.62 3.5 6C3.5 7.38 4.62 8.5 6 8.5C7.38 8.5 8.5 7.38 8.5 6C8.5 4.62 7.38 3.5 6 3.5ZM6 1C3.24 1 1 3.24 1 6C1 8.76 3.24 11 6 11C8.76 11 11 8.76 11 6C11 3.24 8.76 1 6 1ZM6 10C3.79 10 2 8.21 2 6C2 3.79 3.79 2 6 2C8.21 2 10 3.79 10 6C10 8.21 8.21 10 6 10Z" fill="#99BDC6"/>
</g>
<defs>
<clipPath id="clip0_3_98">
<rect width="12" height="12" fill="white"/>
</clipPath>
</defs>
</svg>
