<svg width="20" height="20" viewBox="0 0 20 20" fill="none" xmlns="http://www.w3.org/2000/svg">
<g clip-path="url(#clip0_8_52)">
<path d="M6.66667 1.66663H13.3333C13.7754 1.66663 14.1993 1.84222 14.5118 2.15478C14.8244 2.46734 15 2.89127 15 3.33329V16.6666C15 17.1087 14.8244 17.5326 14.5118 17.8451C14.1993 18.1577 13.7754 18.3333 13.3333 18.3333H6.66667C6.22464 18.3333 5.80072 18.1577 5.48816 17.8451C5.17559 17.5326 5 17.1087 5 16.6666V3.33329C5 2.89127 5.17559 2.46734 5.48816 2.15478C5.80072 1.84222 6.22464 1.66663 6.66667 1.66663ZM6.66667 3.33329V4.99996H13.3333V3.33329H6.66667ZM13.3333 6.66663H6.66667V8.33329H13.3333V6.66663ZM13.3333 15H11.6667V16.6666H13.3333V15Z" fill="#608C9E"/>
</g>
<defs>
<clipPath id="clip0_8_52">
<rect width="20" height="20" fill="white"/>
</clipPath>
</defs>
</svg>
