<svg width="20" height="20" viewBox="0 0 20 20" fill="none" xmlns="http://www.w3.org/2000/svg">
<g clip-path="url(#clip0_10_109)">
<path fill-rule="evenodd" clip-rule="evenodd" d="M11 9.04762H14V10.9524H11V13.8095H9.00001V10.9524H5.99999V9.04762H9.00001V6.19048H11V9.04762ZM10 17.6191C5.589 17.6191 2.00001 14.201 2.00001 10C2.00001 5.79905 5.589 2.38096 10 2.38096C14.411 2.38096 18 5.79905 18 10C18 14.201 14.411 17.6191 10 17.6191ZM10 0.476196C4.477 0.476196 0 4.74001 0 10C0 15.26 4.477 19.5238 10 19.5238C15.523 19.5238 20 15.26 20 10C20 4.74001 15.523 0.476196 10 0.476196Z" fill="#608C9E"/>
</g>
<defs>
<clipPath id="clip0_10_109">
<rect width="20" height="20" fill="white"/>
</clipPath>
</defs>
</svg>
