<svg width="20" height="20" viewBox="0 0 20 20" fill="none" xmlns="http://www.w3.org/2000/svg">
<path d="M9.12713 4.71812C9.10688 4.76613 9.01295 4.75879 8.95951 4.7728C8.91174 4.79347 8.87287 4.82947 8.81781 4.82947C8.76761 4.82947 8.68664 4.8128 8.68016 4.7728C8.67045 4.71812 8.76923 4.66211 8.83158 4.66211C8.87206 4.64611 8.91903 4.63744 8.96842 4.63744C9.01377 4.63744 9.05668 4.64477 9.09555 4.65878L9.09312 4.65811C9.11093 4.66411 9.12389 4.67811 9.12389 4.69478C9.12389 4.69678 9.12389 4.69812 9.12308 4.70012V4.71679H9.12632L9.12713 4.71812ZM9.68421 4.71812V4.70012C9.67773 4.68345 9.69717 4.66544 9.71336 4.65878C9.75061 4.64544 9.79433 4.63744 9.84049 4.63744C9.88988 4.63744 9.93684 4.64677 9.97814 4.66278L9.97652 4.66211C10.0405 4.66211 10.1385 4.71812 10.1279 4.7748C10.1223 4.81547 10.0421 4.82947 9.99109 4.82947C9.93522 4.82947 9.89798 4.79347 9.84858 4.7728C9.79595 4.75746 9.70121 4.76613 9.6834 4.71879L9.68421 4.71812ZM10.7789 6.03701C10.3482 6.26171 9.83887 6.41974 9.29312 6.48108L9.27368 6.48308C8.783 6.45974 8.33684 6.31772 7.97247 6.09102L7.97814 6.09435C7.82267 5.983 7.69474 5.87098 7.60081 5.81497C7.43482 5.70362 7.45506 5.53759 7.52632 5.53759C7.63644 5.55093 7.65668 5.64894 7.72793 5.70428C7.8251 5.75896 7.94575 5.87098 8.09231 5.98166C8.41377 6.20037 8.82024 6.34239 9.2664 6.37039L9.27368 6.37106C9.80324 6.33306 10.285 6.19303 10.7012 5.97633L10.6883 5.983C10.8858 5.87031 11.1385 5.70495 11.3441 5.5936C11.502 5.48025 11.4947 5.3709 11.6267 5.3709C11.7563 5.38423 11.6615 5.48225 11.4777 5.64761C11.2785 5.77296 11.051 5.90165 10.8154 6.021L10.7798 6.03767L10.7789 6.03701ZM3.53522 13.5976H3.54494C3.60081 13.5976 3.65587 13.6023 3.70931 13.6103L3.70364 13.6096C4.14413 13.703 4.50688 13.9283 4.73441 14.2304L4.73846 14.2364L5.65911 15.6226L5.66235 15.6253C6.03239 16.1407 6.42996 16.5868 6.87449 16.9982L6.86559 16.9895C7.26235 17.3362 7.52955 17.787 7.60162 18.287L7.60324 18.2977V18.3031C7.59352 18.8478 7.10688 19.2972 6.47287 19.3806L6.46559 19.3812C6.30364 19.4019 6.11579 19.4132 5.92551 19.4132C5.23158 19.4132 4.58219 19.2579 4.0251 18.9865L4.0421 18.9945C3.18947 18.7004 2.2 18.5184 1.16356 18.4931H1.15142C0.850202 18.4764 0.587854 18.3497 0.421862 18.1624L0.420243 18.1604C0.376518 18.0443 0.351417 17.911 0.351417 17.7723C0.351417 17.5389 0.422672 17.3196 0.548988 17.1282L0.544939 17.1355V17.1322L0.547369 17.1295C0.580567 17.0042 0.6 16.8595 0.6 16.7115C0.6 16.5288 0.57085 16.3521 0.51579 16.184L0.519838 16.198C0.48664 16.098 0.467207 15.9827 0.467207 15.8633C0.467207 15.702 0.502024 15.5479 0.566801 15.4052L0.563563 15.4146C0.725506 15.1365 0.964373 15.0812 1.26154 14.9705C1.61619 14.8818 1.9247 14.7478 2.19352 14.5751L2.18704 14.5791H2.18866V14.5771C2.44777 14.3537 2.63887 14.0763 2.86478 13.879C3.02267 13.713 3.26316 13.6056 3.53441 13.5989H3.53603L3.53522 13.5976ZM14.4777 13.5569C14.4769 13.5683 14.4769 13.5823 14.4769 13.5963C14.4769 14.0917 14.8405 14.5171 15.3603 14.7018L15.37 14.7051C15.4089 14.7071 15.4542 14.7085 15.4996 14.7085C16.1725 14.7085 16.7749 14.4611 17.1798 14.0703L17.1822 14.0677L17.396 14.0597C17.4389 14.0543 17.4883 14.0517 17.5385 14.0517C17.8146 14.0517 18.0664 14.1397 18.2534 14.2837L18.2526 14.283L18.2559 14.2857C18.4575 14.4864 18.5976 14.7345 18.6502 15.0072L18.6518 15.0158C18.6964 15.3526 18.8445 15.6559 19.0704 15.9093L19.0664 15.904C19.4032 16.1414 19.6372 16.4707 19.7085 16.8448L19.7101 16.8535L19.7134 16.8475V16.8621L19.7101 16.8521C19.6947 17.0702 19.5231 17.1822 19.2065 17.3482C18.2478 17.6796 17.4243 18.1204 16.715 18.6604L16.7206 18.6564C16.2283 19.1845 15.5053 19.5493 14.6777 19.6473L14.6607 19.6486C14.6008 19.6553 14.5312 19.6593 14.4607 19.6593C13.8389 19.6593 13.3045 19.3499 13.0713 18.9085L13.0672 18.9005L13.0623 18.8978C12.987 18.7071 12.9441 18.4877 12.9441 18.2604C12.9441 17.983 13.0081 17.7183 13.1255 17.4749L13.119 17.4896C13.3085 17.0442 13.4713 16.5121 13.5789 15.964L13.5879 15.9087C13.6008 15.3672 13.6721 14.8465 13.7968 14.3417L13.7854 14.3971C13.8543 14.0517 14.0939 13.761 14.4283 13.5803L14.434 13.5776L14.4794 13.5596L14.4777 13.5569ZM12.2664 6.09302C12.7522 7.52459 13.3506 8.76146 14.0858 9.93166L14.0219 9.8203C14.5182 10.5471 14.9045 11.3906 15.1255 12.284L15.1368 12.3401C15.1441 12.3401 15.153 12.3401 15.1619 12.3401C15.3377 12.3401 15.5077 12.3594 15.6696 12.3961L15.6559 12.3934C15.7449 12.13 15.796 11.828 15.796 11.5159C15.796 10.5651 15.3206 9.70495 14.5547 9.08951L14.5538 9.08885C14.3312 8.92215 14.319 8.80947 14.4291 8.80947C15.2154 9.41624 15.7968 10.195 16.085 11.0725L16.0947 11.1065C16.1668 11.3259 16.2081 11.5779 16.2081 11.838C16.2081 12.072 16.1749 12.3001 16.1117 12.5181L16.1166 12.4981C16.1765 12.5234 16.2462 12.5428 16.3198 12.5534L16.3247 12.5541C17.3692 12.9988 17.7547 13.3356 17.5692 13.835V13.799C17.5085 13.7963 17.4478 13.799 17.387 13.799H17.3708C17.5239 13.4096 17.187 13.1115 16.2931 12.7788C15.3676 12.4454 14.6275 12.4987 14.502 13.1662C14.4931 13.1989 14.4866 13.2369 14.4842 13.2762V13.2782C14.4251 13.2982 14.3547 13.3169 14.2818 13.3302L14.2729 13.3316C13.8615 13.5556 13.5684 13.9043 13.4721 14.3111L13.4704 14.3204C13.3506 14.7838 13.2753 15.3206 13.2632 15.8693V15.8773V15.88C13.1895 16.3047 13.0769 16.6848 12.9247 17.0488L12.9409 17.0048C12.1449 17.5409 11.1182 17.865 9.99838 17.865C9.0834 17.865 8.22996 17.6483 7.51012 17.2735L7.52955 17.2829C7.41134 17.1142 7.27611 16.9682 7.12227 16.8381L7.12308 16.8388C7.04453 16.7321 6.95223 16.6408 6.84615 16.5621L6.84453 16.5614C7.01215 16.5614 7.17409 16.5408 7.32713 16.5028L7.31498 16.5054C7.46073 16.4487 7.57247 16.3507 7.63158 16.2307L7.6332 16.2274C7.64777 16.1654 7.65668 16.0947 7.65668 16.022C7.65668 15.7253 7.51498 15.4566 7.2834 15.2579L7.28421 15.2585C6.783 14.7511 6.18381 14.3284 5.50607 14.005L5.4753 13.9917C4.93198 13.733 4.52065 13.3282 4.31741 12.8435L4.31174 12.8288C4.23644 12.6168 4.19271 12.3727 4.19271 12.1207C4.19271 11.8853 4.23077 11.6573 4.30121 11.4399L4.29636 11.4579C4.60162 10.5818 5.0421 9.81697 5.6081 9.12685L5.58542 9.15553C5.69393 9.10152 5.62267 9.26821 5.17247 9.96699C4.78866 10.4424 4.55951 11.0272 4.55951 11.6559C4.55951 12.216 4.74089 12.7408 5.0583 13.1935L5.04858 13.1789C5.09069 12.3061 5.32794 11.4872 5.72389 10.7391L5.70364 10.7825C6.55789 9.51425 7.20486 8.04134 7.54575 6.48041L7.56194 6.39307C7.61053 6.42307 7.78138 6.50575 7.85425 6.56109C8.07449 6.67178 8.23887 6.83847 8.45101 6.94849C8.66721 7.12185 8.96356 7.22854 9.28907 7.22854C9.30607 7.22854 9.32308 7.22854 9.34008 7.22787H9.33765C9.37733 7.23054 9.41376 7.23321 9.44858 7.23321C9.82024 7.2272 10.1668 7.14519 10.468 7.00517L10.4575 7.00984C10.7506 6.89848 10.9838 6.73179 11.2065 6.67645H11.2113C11.6445 6.57976 12.0073 6.37373 12.264 6.09702L12.2672 6.09302H12.2664ZM9.4332 4.30805C9.43563 4.30805 9.43806 4.30805 9.44049 4.30805C9.90121 4.30805 10.3263 4.43274 10.6688 4.64344L10.6632 4.64011C10.9692 4.79613 11.3223 4.92882 11.6955 5.02284L11.7279 5.02951H11.7312C11.9304 5.10285 12.0947 5.21687 12.2121 5.35889L12.2146 5.36223V5.25288C12.2518 5.31422 12.2745 5.3869 12.2745 5.46358C12.2745 5.52892 12.2583 5.59093 12.23 5.64761L12.2316 5.64427C11.9984 5.98233 11.6202 6.23371 11.1684 6.34306L11.1555 6.34572V6.34706C10.8842 6.45974 10.6486 6.62444 10.3717 6.73446C10.0883 6.87448 9.74737 6.95716 9.38219 6.95716C9.37004 6.95716 9.35789 6.95716 9.34575 6.95716H9.34737C9.32955 6.95783 9.3085 6.95849 9.28745 6.95849C9.14656 6.95849 9.01053 6.93782 8.88583 6.89915L8.89393 6.90115C8.76518 6.84314 8.65911 6.78846 8.55628 6.72979L8.56761 6.73646C8.38381 6.60377 8.18138 6.47641 7.96923 6.35973L7.94818 6.34906V6.34506H7.94332C7.63968 6.21237 7.40081 6.009 7.25344 5.76096L7.24939 5.75296C7.22753 5.70828 7.21538 5.65628 7.21538 5.60227C7.21538 5.45691 7.30607 5.32889 7.44292 5.25421L7.44453 5.25354C7.67126 5.14086 7.82915 5.0275 7.9336 4.9735C8.03887 4.91215 8.07854 4.88881 8.11174 4.86414H8.11336V4.86148C8.33036 4.63544 8.61781 4.46208 8.94899 4.36406L8.96194 4.36073C9.10283 4.32739 9.26478 4.30805 9.43239 4.30672L9.4332 4.30805ZM8.04696 2.88648H8.0834C8.23563 2.88915 8.37571 2.93115 8.48907 2.99983L8.48745 2.9985C8.63239 3.10452 8.75061 3.23321 8.83158 3.37856L8.83482 3.3859C8.92632 3.54926 8.983 3.73929 8.98947 3.93932V3.94132V3.94466C8.99271 3.97533 8.99433 4.01067 8.99433 4.04601C8.99433 4.08801 8.9919 4.13002 8.98704 4.17136L8.98785 4.16603V4.23271C8.95789 4.23871 8.93117 4.24737 8.90364 4.25271C8.74899 4.30538 8.61862 4.36139 8.49474 4.42474L8.50607 4.4194C8.51255 4.38273 8.51579 4.34072 8.51579 4.29805C8.51579 4.26271 8.51336 4.22737 8.5085 4.1927L8.50931 4.1967V4.18403C8.49474 4.08135 8.46559 3.98733 8.42267 3.89865L8.42591 3.90598C8.39271 3.81797 8.33441 3.74329 8.2583 3.68395C8.21377 3.65061 8.15466 3.62994 8.08907 3.62994C8.0834 3.62994 8.07773 3.62994 8.07206 3.6306H8.07287H8.05182C7.96842 3.63794 7.89879 3.68061 7.86397 3.73929L7.86316 3.74062C7.80081 3.80263 7.75789 3.87931 7.7417 3.96333V3.96599C7.72308 4.02334 7.71336 4.08935 7.71336 4.15736C7.71336 4.1867 7.71498 4.21604 7.71903 4.24471V4.24137V4.25404C7.73198 4.35673 7.76113 4.45141 7.80324 4.53942L7.8 4.53209C7.83401 4.6201 7.8915 4.69545 7.96761 4.75546C7.97733 4.76346 7.98866 4.77013 8.00162 4.77546H8.00243C7.93522 4.8108 7.87692 4.84814 7.82348 4.88948L7.82429 4.88882C7.78785 4.91549 7.74332 4.93549 7.69393 4.94482L7.6915 4.94549C7.5919 4.84747 7.49959 4.73746 7.42024 4.62144L7.41377 4.61077C7.32227 4.44741 7.26559 4.25804 7.25668 4.05734V4.05468C7.25344 4.02267 7.25182 3.98533 7.25182 3.94732C7.25182 3.78663 7.2834 3.63194 7.34089 3.48725L7.33765 3.49792C7.39757 3.32589 7.49555 3.1772 7.62591 3.05051L7.62429 3.05251C7.72713 2.95249 7.87773 2.88915 8.04696 2.88581H8.04777L8.04696 2.88648ZM11.0445 2.83714H11.0575C11.0583 2.83714 11.0591 2.83714 11.0607 2.83714C11.2834 2.83714 11.4874 2.89915 11.651 3.00317L11.6486 3.00183C11.834 3.11985 11.983 3.26854 12.0874 3.43857L12.0915 3.44591C12.1895 3.62327 12.2502 3.82931 12.2591 4.04667V4.04934C12.2591 4.03267 12.2648 4.016 12.2648 3.99933V4.08668L12.2607 4.06934L12.2567 4.04934C12.2543 4.26271 12.1992 4.46408 12.1004 4.64744L12.1053 4.63811C12.0551 4.74679 11.9822 4.84014 11.8899 4.91749C11.8656 4.90548 11.8356 4.89415 11.8057 4.88415L11.8008 4.88281C11.6915 4.85481 11.596 4.8168 11.5093 4.77013L11.5134 4.77213C11.451 4.75079 11.3765 4.73212 11.2996 4.71812L11.2907 4.71679C11.3563 4.66611 11.417 4.6121 11.4729 4.55476L11.4761 4.55143C11.5271 4.45274 11.5587 4.33872 11.5652 4.2187V4.2167V4.20003C11.5652 4.1947 11.5652 4.18936 11.5652 4.18336C11.5652 4.07001 11.5425 3.96133 11.5004 3.85998L11.5028 3.86731C11.4518 3.76129 11.3895 3.66994 11.315 3.5866L11.3182 3.58993C11.2478 3.53126 11.1547 3.49125 11.0502 3.47991H11.0478H11.0316C11.0308 3.47991 11.0291 3.47991 11.0283 3.47991C10.9215 3.47991 10.8259 3.52325 10.7676 3.58927L10.7668 3.58993C10.6729 3.66528 10.6016 3.75863 10.5611 3.86331L10.5595 3.86798C10.5085 3.96599 10.4753 4.08001 10.4688 4.1987V4.2007V4.2167C10.4704 4.29672 10.4777 4.37406 10.4907 4.44941L10.4891 4.43941C10.2939 4.3834 10.0462 4.32672 9.87449 4.27138C9.86478 4.2227 9.8583 4.16536 9.85668 4.10668V4.10468V4.08801C9.85587 4.07468 9.85587 4.05934 9.85587 4.04401C9.85587 3.82797 9.91174 3.62327 10.013 3.43857L10.0081 3.44791C10.0939 3.26188 10.2453 3.10919 10.4389 3.00583L10.4429 3.00383C10.6081 2.89982 10.8178 2.83714 11.0445 2.83714ZM10.5093 0C10.3522 0 10.1903 0.00666779 10.0235 0.0173362C5.74737 0.294716 6.88178 4.02267 6.81619 5.26488C6.77571 6.2157 6.38381 7.08451 5.74332 7.7933L5.75385 7.7813C4.61457 8.84947 3.68502 10.0977 3.04049 11.4639L3.00567 11.5486C2.79676 12.0053 2.6753 12.5328 2.6753 13.0835C2.6753 13.2735 2.68988 13.4609 2.71741 13.6443L2.71498 13.6223C2.66964 13.6529 2.63158 13.6903 2.60486 13.733L2.60405 13.735C2.34089 13.9583 2.14899 14.235 1.93279 14.4337C1.70364 14.5784 1.43482 14.6924 1.14332 14.7631L1.12632 14.7665C0.750607 14.8591 0.444534 15.0612 0.25587 15.3272L0.251822 15.3332C0.167611 15.4746 0.118219 15.6406 0.118219 15.8166C0.118219 15.8233 0.118219 15.8293 0.118219 15.836C0.119838 15.9947 0.139271 16.148 0.177328 16.2974L0.174089 16.282C0.219433 16.4281 0.245344 16.5961 0.245344 16.7688C0.245344 16.8821 0.234008 16.9935 0.212146 17.1022L0.213765 17.0902C0.0785425 17.2989 0 17.5469 0 17.8103C0 17.9957 0.0388665 18.173 0.110931 18.3377L0.106883 18.3271C0.327935 18.5858 0.662348 18.7685 1.04939 18.8265L1.0583 18.8278C2.08988 18.8991 3.04291 19.0765 3.9417 19.3479L3.86559 19.3279C4.43077 19.6046 5.11174 19.768 5.83806 19.768C6.07611 19.768 6.30931 19.7506 6.53603 19.7166L6.51255 19.7193C7.05263 19.6186 7.49312 19.3286 7.73036 18.9398L7.73522 18.9312C8.32955 18.9285 8.97976 18.7071 10.0219 18.6531C10.7287 18.6051 11.6146 18.8758 12.6291 18.8198C12.6591 18.9258 12.6988 19.0185 12.749 19.1059L12.7441 19.0972L12.7474 19.0999C13.0583 19.6359 13.7109 20 14.4672 20C14.5328 20 14.5976 19.9973 14.6615 19.992L14.6534 19.9927C15.5854 19.8793 16.3854 19.4806 16.9312 18.9105L16.9368 18.9045C17.6194 18.3924 18.4162 17.9703 19.2891 17.6689L19.3433 17.6523C19.6931 17.5249 19.9441 17.2622 19.9992 16.9462L20 16.9415C19.9522 16.4787 19.6826 16.0753 19.281 15.7973L19.2777 15.7953V15.7146L19.2745 15.712C19.1012 15.4919 18.9798 15.2305 18.9336 14.9505L18.932 14.9405C18.8891 14.5984 18.7069 14.2964 18.434 14.069H18.4308C18.3709 14.0243 18.3061 14.013 18.2405 13.9563C18.187 13.925 18.1206 13.9057 18.0486 13.903C18.2065 13.5016 18.2972 13.0402 18.2972 12.5608C18.2972 11.934 18.1409 11.3372 17.8591 10.7958L17.8729 10.8251C17.3028 9.71029 16.5619 8.75079 15.6607 7.91199L15.6721 7.92332C14.7773 7.20187 14.1919 6.22237 14.0947 5.13152L14.0939 5.11752C14.1206 3.32455 14.3328 0.0073346 10.5077 0.00266716L10.5093 0Z" fill="#608C9E"/>
</svg>
