<svg width="20" height="20" viewBox="0 0 20 20" fill="none" xmlns="http://www.w3.org/2000/svg">
<path d="M2.09625 6.425C1.845 5.85 1.22375 5.5875 0.643748 5.8575C0.062498 6.1275 -0.151252 6.8025 0.111248 7.38L2.5475 12.925C2.93 13.795 3.335 14.25 4.0925 14.25C4.90125 14.25 5.255 13.7538 5.6375 12.925L7.78375 8.03C7.80576 7.96721 7.84746 7.91322 7.90264 7.87605C7.95783 7.83889 8.02354 7.82054 8.09 7.82375C8.2725 7.82375 8.4275 7.9775 8.4275 8.1825V12.92C8.4275 13.6513 8.8125 14.25 9.5575 14.25C10.3012 14.25 10.7025 13.65 10.7025 12.9212V9.04375C10.7025 8.295 11.215 7.81 11.9125 7.81C12.61 7.81 13.0737 8.3125 13.0737 9.04375V12.9212C13.0737 13.6512 13.4612 14.25 14.205 14.25C14.9487 14.25 15.3525 13.65 15.3525 12.9212V9.04375C15.3525 8.295 15.8625 7.81 16.56 7.81C17.2562 7.81 17.7225 8.3125 17.7225 9.04375V12.9212C17.7225 13.6512 18.11 14.25 18.8537 14.25C19.5962 14.25 20 13.65 20 12.9212V8.50875C20 6.88625 18.755 5.75 17.2562 5.75C15.76 5.75 14.8225 6.835 14.8225 6.835C14.3225 6.1575 13.6362 5.75125 12.475 5.75125C11.2475 5.75125 10.175 6.835 10.175 6.835C9.675 6.1575 8.8275 5.75125 8.125 5.75125C7.0375 5.75125 6.175 6.25125 5.6475 7.51375L4.0925 11.3525L2.09625 6.425Z" fill="#608C9E"/>
</svg>
