<svg width="20" height="20" viewBox="0 0 20 20" fill="none" xmlns="http://www.w3.org/2000/svg">
<g clip-path="url(#clip0_8_29)">
<path fill-rule="evenodd" clip-rule="evenodd" d="M9.14586 10.4341C9.15088 12.433 9.15689 15.8292 9.1619 18.4688C12.7759 18.9575 16.39 19.4613 19.998 20C19.998 16.8487 20.002 13.7112 19.998 10.7129C16.381 10.7129 12.7649 10.4341 9.14586 10.4341ZM0 10.4351V17.2217C2.72581 17.5895 5.45163 17.941 8.17243 18.3428C8.17744 15.7172 8.17043 13.0909 8.17043 10.4653C5.44662 10.4703 2.72381 10.4261 0 10.4351ZM0 2.84326V9.61084C2.72581 9.61784 5.45163 9.57659 8.17744 9.57959C8.17544 6.96003 8.17544 4.34368 8.17243 1.72412C5.44461 2.06493 2.71679 2.42549 0 2.84326ZM20 9.47168C16.388 9.48567 12.7759 9.54076 9.1619 9.55176C9.1599 6.88922 9.1599 4.22987 9.1619 1.56934C12.7689 1.01864 16.384 0.50072 19.998 0C20 3.15826 19.998 6.31342 20 9.47168Z" fill="#608C9E"/>
</g>
<defs>
<clipPath id="clip0_8_29">
<rect width="20" height="20" fill="white"/>
</clipPath>
</defs>
</svg>
