<svg width="20" height="20" viewBox="0 0 20 20" fill="none" xmlns="http://www.w3.org/2000/svg">
<path d="M17.4667 16.6666C16.6667 17.0666 15.6 16.8 15.0667 16L13.6 14.1333H6.39999L4.93332 16C4.26665 16.9333 3.06665 17.0666 2.13332 16.4C1.46665 15.8666 1.19999 15.0666 1.33332 14.4L2.26665 9.46663C2.53332 7.86663 3.99999 6.66663 5.59999 6.66663H9.33332V4.66663C9.33332 3.59996 10.1333 2.66663 11.2 2.66663H15.3333C15.7333 2.66663 16 2.93329 16 3.33329C16 3.73329 15.7333 3.99996 15.3333 3.99996H11.3333C10.9333 3.99996 10.6667 4.26663 10.6667 4.53329V4.66663V6.66663H14.4C16 6.66663 17.4667 7.86663 17.7333 9.46663L18.6667 14.4C18.8 15.3333 18.4 16.2666 17.4667 16.6666ZM7.99999 9.99996C7.99999 8.93329 7.06665 7.99996 5.99999 7.99996C4.93332 7.99996 3.99999 8.93329 3.99999 9.99996C3.99999 11.0666 4.93332 12 5.99999 12C7.06665 12 7.99999 11.0666 7.99999 9.99996ZM16 9.99996C16 9.59996 15.7333 9.33329 15.3333 9.33329H14.6667V8.66663C14.6667 8.26663 14.4 7.99996 14 7.99996C13.6 7.99996 13.3333 8.26663 13.3333 8.66663V9.33329H12.6667C12.2667 9.33329 12 9.59996 12 9.99996C12 10.4 12.2667 10.6666 12.6667 10.6666H13.3333V11.3333C13.3333 11.7333 13.6 12 14 12C14.4 12 14.6667 11.7333 14.6667 11.3333V10.6666H15.3333C15.7333 10.6666 16 10.4 16 9.99996Z" fill="#608C9E"/>
</svg>
