<svg width="20" height="20" viewBox="0 0 20 20" fill="none" xmlns="http://www.w3.org/2000/svg">
<g clip-path="url(#clip0_8_18)">
<path d="M10 20C15.5228 20 20 15.5228 20 10C20 4.47715 15.5228 0 10 0C4.47715 0 0 4.47715 0 10C0 15.5228 4.47715 20 10 20Z" fill="#608C9E"/>
<path d="M8.325 12.4912L3.90125 10.5681V9.50312L8.325 7.58875V8.84312L5.23874 10.0231L8.325 11.2469V12.4912Z" fill="#0A1C2D"/>
<path d="M8.73438 13.3362L10.3325 6.66309H11.2612L9.64562 13.3362H8.73438Z" fill="#0A1C2D"/>
<path d="M11.6706 12.4962V11.2499L14.7606 10.0349L11.6706 8.83368V7.5968L16.0987 9.51118V10.5674L11.6706 12.4962Z" fill="#0A1C2D"/>
</g>
<defs>
<clipPath id="clip0_8_18">
<rect width="20" height="20" fill="white"/>
</clipPath>
</defs>
</svg>
